<svg width="306" height="306" viewBox="0 0 306 306" fill="none" xmlns="http://www.w3.org/2000/svg">
<path d="M83.844 27.6869L84.1072 28.1275C84.398 28.6192 84.8225 29.0181 85.3312 29.2781L85.7902 29.5045L85.3495 29.7677C84.8595 30.0586 84.4625 30.4832 84.2051 30.9917L83.9725 31.4568L83.7094 31.0161C83.4185 30.5245 82.9941 30.1255 82.4854 29.8656L82.0264 29.6391L82.467 29.3699C82.9591 29.0795 83.3582 28.6549 83.6176 28.1459L83.844 27.6869Z" fill="#E0E0E0"/>
<path d="M148.765 61.4999L149.028 61.9405C149.319 62.4322 149.743 62.8312 150.252 63.0911L150.711 63.3175L150.27 63.5807C149.78 63.8734 149.382 64.2973 149.12 64.8047L148.893 65.2637L148.63 64.8292C148.339 64.3375 147.915 63.9385 147.406 63.6786L146.947 63.4522L147.388 63.1829C147.88 62.8941 148.277 62.4689 148.532 61.9589L148.765 61.4999Z" fill="#E0E0E0"/>
<path d="M37.1055 155.448L37.3687 155.889C37.6613 156.379 38.0853 156.777 38.5927 157.039L39.0578 157.266L38.6171 157.529C38.1269 157.821 37.7284 158.245 37.4666 158.753L37.2401 159.218L36.9709 158.777C36.6805 158.285 36.2559 157.886 35.7469 157.627L35.2817 157.4L35.7224 157.131C36.2145 156.841 36.6136 156.416 36.8729 155.907L37.1055 155.448Z" fill="#E0E0E0"/>
<path d="M212.156 273.723L212.425 274.164C212.715 274.656 213.14 275.055 213.649 275.314L214.114 275.541L213.674 275.81C213.181 276.1 212.782 276.525 212.523 277.034L212.297 277.499L212.033 277.059C211.741 276.568 211.317 276.17 210.809 275.908L210.35 275.682L210.791 275.412C211.279 275.119 211.675 274.695 211.935 274.188L212.156 273.723Z" fill="#E0E0E0"/>
<path d="M261.991 142.529L262.603 143.49C263.253 144.57 264.198 145.443 265.326 146.005L266.336 146.501L265.375 147.113C264.295 147.762 263.422 148.707 262.86 149.836L262.364 150.846L261.783 149.885C261.135 148.803 260.19 147.93 259.06 147.37L258.05 146.874L259.017 146.292C260.096 145.642 260.966 144.697 261.526 143.569L261.991 142.529Z" fill="#E0E0E0"/>
<path d="M206.574 19.584L207.156 20.5509C207.804 21.6313 208.75 22.5023 209.879 23.0601L210.889 23.5559L209.922 24.1679C208.843 24.818 207.973 25.7629 207.413 26.8913L206.917 27.9011L206.305 26.9402C205.655 25.8578 204.707 24.9848 203.576 24.4249L202.603 23.868L203.563 23.2866C204.645 22.6384 205.518 21.6931 206.079 20.5632L206.574 19.584Z" fill="#E0E0E0"/>
<path d="M87.9199 259.084L88.4952 260.051C89.1459 261.132 90.0933 262.002 91.2247 262.56L92.2284 263.056L91.2675 263.637C90.1856 264.286 89.3143 265.234 88.7583 266.367L88.2565 267.371L87.6812 266.41C87.0307 265.329 86.0833 264.458 84.9517 263.9L83.948 263.399L84.9088 262.823C85.9881 262.171 86.8586 261.224 87.418 260.094L87.9199 259.084Z" fill="#E0E0E0"/>
<path d="M245.498 100.943C245.498 100.943 240.559 103.391 234.102 107.204C226.232 111.88 210.032 121.066 199.677 113.808L190.197 95.1966C190.197 95.1966 196.281 97.9873 205.54 96.7817C213.802 95.7107 220.412 91.3594 223.386 89.3581C224.61 88.5442 226.177 87.4487 227.419 86.702C229.5 85.478 231.997 83.6421 235.632 81.855L245.498 100.943Z" fill="#EBEBEB"/>
<path d="M220.282 111.291C224.413 110.567 227.205 106.801 226.518 102.879C225.831 98.9571 221.924 96.3647 217.793 97.0888C213.661 97.8129 210.869 101.579 211.556 105.501C212.244 109.423 216.15 112.015 220.282 111.291Z" fill="#F5F5F5"/>
<path d="M216.568 101.255L215.956 100.313L216.709 99.8233L217.321 100.747C218.017 100.337 218.823 100.151 219.628 100.215L219.879 101.512C219.247 101.449 218.61 101.568 218.043 101.855L218.955 103.263C219.934 102.951 221.067 102.651 221.844 103.875C222.425 104.768 222.34 105.913 221.232 106.831L221.844 107.767L221.091 108.251L220.479 107.333C219.918 107.644 219.285 107.804 218.643 107.798L218.349 106.519C218.844 106.525 219.333 106.42 219.781 106.213L218.857 104.78C217.884 105.099 216.764 105.392 215.999 104.169C215.424 103.306 215.491 102.204 216.568 101.255ZM217.119 103.299C217.309 103.599 217.627 103.618 218.037 103.532L217.284 102.369C217.148 102.477 217.055 102.631 217.025 102.803C216.994 102.974 217.028 103.151 217.119 103.299ZM219.72 104.523L220.491 105.747C220.633 105.632 220.728 105.469 220.757 105.288C220.786 105.108 220.748 104.923 220.65 104.768C220.461 104.419 220.13 104.407 219.708 104.499L219.72 104.523Z" fill="#EBEBEB"/>
<path d="M200.736 113.905L200.858 113.979C201.164 114.162 208.551 118.367 221.721 112.375C226.642 110.134 231.372 107.495 235.865 104.487C238.717 102.651 240.761 101.298 243.037 100.698L243.649 100.539L235.124 83.0239L234.641 83.3666C234.5 83.4646 220.601 93.128 214.408 95.6617C209.512 97.6752 200.191 100.558 193.178 97.3447L191.831 96.7327L200.736 113.905ZM214.775 96.6042C219.249 94.7682 227.382 89.4866 231.911 86.4328C232.331 87.0808 232.969 87.5565 233.71 87.773C234.532 88.0009 235.41 87.8999 236.158 87.4915L240.828 97.0816C240.453 97.237 240.119 97.476 239.85 97.7804C239.582 98.0848 239.387 98.4466 239.28 98.838C239.088 99.5937 239.13 100.39 239.402 101.121C238.178 101.794 236.85 102.639 235.314 103.636C230.867 106.622 226.181 109.235 221.305 111.451C214.689 114.462 209.622 114.75 206.538 114.462C205.732 114.389 204.933 114.26 204.145 114.077C203.911 113.176 203.409 112.368 202.705 111.761C202.001 111.153 201.128 110.774 200.203 110.674L195.228 101.09C195.736 101.047 196.403 100.741 196.531 99.4561C203.104 100.698 210.528 98.3362 214.745 96.6042H214.775Z" fill="#F5F5F5"/>
<path d="M77.5708 37.5645C77.5708 37.5645 72.632 40.0125 66.1754 43.8253C58.3051 48.4949 42.1054 57.6871 31.7504 50.4288L22.2705 31.824C22.2705 31.824 28.3538 34.6086 37.6133 33.4091C45.8753 32.3381 52.4849 27.9868 55.4593 25.9794C56.6833 25.1716 58.25 24.07 59.4923 23.3233C61.5731 22.0993 64.0701 20.2633 67.7054 18.4824L77.5708 37.5645Z" fill="#EBEBEB"/>
<path d="M52.3553 47.8995C56.4869 47.1755 59.2791 43.4092 58.5918 39.4874C57.9045 35.5655 53.998 32.9732 49.8664 33.6972C45.7348 34.4213 42.9427 38.1875 43.63 42.1094C44.3172 46.0312 48.2237 48.6236 52.3553 47.8995Z" fill="#F5F5F5"/>
<path d="M48.6415 37.8767L48.0295 36.9281L48.7823 36.4446L49.3943 37.3687C50.0893 36.9555 50.8958 36.7694 51.7015 36.8363L51.9524 38.1337C51.321 38.0712 50.6847 38.1879 50.1164 38.4703L51.0283 39.884C52.0075 39.5719 53.1397 39.272 53.917 40.496C54.2239 40.9692 54.3318 41.5444 54.2172 42.0967C54.1026 42.649 53.7748 43.1338 53.305 43.4459L53.917 44.3822L53.1642 44.8718L52.5522 43.9477C51.9913 44.2609 51.3587 44.4233 50.7162 44.4189L50.4224 43.1399C50.9164 43.1432 51.4051 43.0388 51.8545 42.8339L50.9304 41.4018C49.9573 41.72 48.8374 42.0138 48.0724 40.7898C47.4787 39.9269 47.5644 38.7947 48.6415 37.8767ZM49.1923 39.9207C49.382 40.2145 49.7003 40.239 50.1103 40.1533L49.3576 38.9905C49.2207 39.0983 49.1282 39.2526 49.0977 39.4241C49.0673 39.5957 49.1009 39.7724 49.1923 39.9207ZM51.7933 41.1447L52.5644 42.3687C52.7056 42.2515 52.7995 42.0871 52.8288 41.9059C52.858 41.7248 52.8207 41.5391 52.7236 41.3834C52.5338 41.0407 52.2034 41.004 51.7933 41.1203V41.1447Z" fill="#EBEBEB"/>
<path d="M32.7787 50.5267L32.9011 50.6002C33.2071 50.7838 40.5939 54.9882 53.7642 48.9967C58.6918 46.7536 63.4299 44.1154 67.932 41.108C70.7839 39.272 72.828 37.9195 75.1046 37.3198L75.7166 37.1606L67.1486 19.6452L66.6651 19.9879C66.5243 20.0858 52.632 29.7432 46.4324 32.283C41.5364 34.2965 32.2156 37.179 25.2021 33.966L23.8557 33.354L32.7787 50.5267ZM46.818 33.2255C51.2917 31.3895 59.4252 26.1079 63.954 23.054C64.3906 23.7351 65.0707 24.2239 65.8554 24.4207C66.6402 24.6174 67.4704 24.5073 68.1768 24.1128L72.8463 33.7028C72.4709 33.8574 72.1361 34.0962 71.8676 34.4008C71.5992 34.7053 71.4043 35.0675 71.298 35.4593C71.1056 36.2129 71.1483 37.0073 71.4204 37.7359C70.1964 38.4152 68.8683 39.2598 67.3322 40.2574C62.8911 43.2419 58.2119 45.8558 53.3419 48.0726C46.7262 51.0836 41.6588 51.3713 38.556 51.0775C37.7506 51.0057 36.9511 50.8789 36.163 50.6981C35.9307 49.7965 35.4289 48.9872 34.7248 48.3782C34.0206 47.7691 33.1474 47.3892 32.2218 47.2892L27.2646 37.7053C27.7725 37.6686 28.4396 37.3626 28.5681 36.0713C35.1777 37.332 42.5829 34.9574 46.818 33.2255Z" fill="#F5F5F5"/>
<path d="M253.288 248.564C253.288 248.564 248.35 251.012 241.893 254.825C234.029 259.488 217.823 268.668 207.468 261.428L197.988 242.817C197.988 242.817 204.071 245.608 213.331 244.408C221.593 243.331 228.202 238.98 231.177 236.979C232.401 236.165 233.968 235.069 235.21 234.323C237.291 233.099 239.788 231.263 243.423 229.476L253.288 248.564Z" fill="#EBEBEB"/>
<path d="M219.347 253.117C218.661 249.194 221.452 245.43 225.583 244.702C229.714 243.974 233.619 246.575 234.304 250.498C234.99 254.421 232.199 258.184 228.068 258.907C223.937 259.629 220.032 257.04 219.347 253.117Z" fill="#F5F5F5"/>
<path d="M224.359 248.876L223.747 247.933L224.5 247.45L225.112 248.368C225.808 247.957 226.613 247.772 227.419 247.836L227.67 249.133C227.038 249.073 226.402 249.192 225.834 249.476L226.746 250.883C227.725 250.571 228.863 250.271 229.641 251.495C230.216 252.395 230.13 253.533 229.029 254.451L229.641 255.388L228.888 255.871L228.276 254.953C227.714 255.264 227.082 255.424 226.44 255.418L226.146 254.139C226.64 254.146 227.129 254.043 227.578 253.839L226.654 252.401C225.681 252.719 224.561 253.013 223.796 251.789C223.196 250.92 223.282 249.8 224.359 248.876ZM224.91 250.926C225.099 251.22 225.424 251.238 225.828 251.159L225.075 249.99C224.941 250.1 224.851 250.254 224.821 250.424C224.791 250.595 224.822 250.771 224.91 250.92V250.926ZM227.511 252.15L228.288 253.344C228.428 253.226 228.52 253.063 228.548 252.883C228.577 252.703 228.538 252.518 228.441 252.364C228.276 252.046 227.921 252.028 227.511 252.144V252.15Z" fill="#EBEBEB"/>
<path d="M208.496 261.526L208.619 261.599C208.931 261.783 216.311 265.987 229.482 260.002C234.402 257.758 239.132 255.117 243.625 252.107C246.477 250.271 248.521 248.919 250.798 248.319L251.41 248.16L242.884 230.651L242.395 230.987C242.254 231.085 228.362 240.749 222.162 243.282C217.266 245.296 207.945 248.178 200.932 244.965L199.592 244.353L208.496 261.526ZM222.535 244.225C227.009 242.389 235.143 237.107 239.671 234.053C240.108 234.734 240.788 235.223 241.573 235.42C242.358 235.617 243.188 235.507 243.894 235.112L248.564 244.702C248.19 244.859 247.856 245.098 247.588 245.402C247.319 245.706 247.124 246.068 247.015 246.458C246.825 247.215 246.87 248.011 247.144 248.741C245.92 249.421 244.586 250.265 243.056 251.257C238.605 254.241 233.918 256.856 229.041 259.078C222.425 262.083 217.358 262.37 214.273 262.083C213.47 262.009 212.672 261.88 211.887 261.697C211.652 260.798 211.149 259.991 210.445 259.383C209.741 258.775 208.87 258.396 207.945 258.295L202.97 248.711C203.478 248.674 204.139 248.368 204.267 247.077C210.901 248.319 218.3 245.963 222.535 244.225Z" fill="#F5F5F5"/>
<path d="M68.8316 191.066C68.8316 191.066 63.8988 193.514 57.4422 197.327C49.5719 201.997 33.3723 211.189 23.0172 203.931L13.5374 185.32C13.5374 185.32 19.6206 188.11 28.8802 186.905C37.1361 185.834 43.7518 181.482 46.7261 179.475C47.9501 178.667 49.5107 177.566 50.7592 176.825C52.84 175.601 55.3308 173.765 58.9722 171.978L68.8316 191.066Z" fill="#EBEBEB"/>
<path d="M34.8838 195.62C34.1983 191.697 36.9891 187.927 41.1201 187.205C45.2511 186.482 49.1556 189.071 49.8472 192.994C50.5387 196.917 47.7358 200.687 43.617 201.409C39.4983 202.131 35.5815 199.543 34.8838 195.62Z" fill="#F5F5F5"/>
<path d="M39.9023 191.378L39.2903 190.43L40.0431 189.946L40.6551 190.871C41.3511 190.46 42.1568 190.274 42.9623 190.338L43.2071 191.636C42.5756 191.572 41.9391 191.689 41.3711 191.972L42.2585 193.392C43.2438 193.08 44.376 192.78 45.1532 194.004C45.7285 194.897 45.6428 196.042 44.5412 196.96L45.1532 197.896L44.4005 198.38L43.7885 197.456C43.2283 197.771 42.5952 197.933 41.9525 197.927L41.6649 196.648C42.1588 196.651 42.6475 196.547 43.0969 196.342L42.1728 194.91C41.1936 195.228 40.0798 195.522 39.3087 194.298C38.7456 193.429 38.8252 192.296 39.9023 191.378ZM40.4531 193.423C40.6489 193.716 40.9672 193.741 41.3711 193.655L40.6244 192.492C40.4877 192.6 40.3948 192.754 40.3633 192.925C40.3318 193.096 40.3637 193.273 40.4531 193.423ZM43.0602 194.647L43.8313 195.871C43.9738 195.754 44.0682 195.589 44.0964 195.407C44.1247 195.225 44.0847 195.039 43.9843 194.885C43.7946 194.543 43.4519 194.53 43.0602 194.616V194.647Z" fill="#EBEBEB"/>
<path d="M24.0392 204.029L24.1677 204.102C24.4737 204.286 31.8605 208.49 45.0308 202.499C49.951 200.259 54.681 197.622 59.1741 194.616C62.026 192.78 64.0701 191.427 66.3467 190.828L66.9587 190.669L58.4152 173.147L57.9317 173.49C57.791 173.588 43.8924 183.245 37.699 185.785C32.803 187.798 23.4822 190.681 16.4687 187.468L15.1223 186.856L24.0392 204.029ZM38.0846 186.727C42.5583 184.891 50.6918 179.61 55.2206 176.556C55.6583 177.237 56.3395 177.726 57.1253 177.923C57.911 178.12 58.7422 178.009 59.4495 177.615L64.1129 187.205C63.7384 187.36 63.4046 187.599 63.1371 187.903C62.8697 188.208 62.6759 188.57 62.5707 188.961C62.3754 189.716 62.4182 190.514 62.6931 191.244C61.4691 191.917 60.141 192.762 58.6049 193.759C54.158 196.745 49.4725 199.359 44.5962 201.574C37.9805 204.585 32.9132 204.873 29.8226 204.585C29.0191 204.511 28.2217 204.383 27.4358 204.2C27.2018 203.299 26.6996 202.491 25.9958 201.882C25.2919 201.273 24.4195 200.893 23.4945 200.791L18.5189 191.207C19.0269 191.17 19.6878 190.864 19.8225 189.573C26.4443 190.822 33.8434 188.459 38.0846 186.727Z" fill="#F5F5F5"/>
<path d="M221.134 194.12C221.134 194.12 230.589 183.037 249.176 190.173C249.88 190.449 250.61 190.654 251.354 190.785C253.472 191.204 255.664 191.047 257.701 190.332C261.318 188.875 266.471 186.752 266.471 186.752L282.383 196.177C282.383 196.177 275.706 201.073 269.243 201.452C262.78 201.831 255.167 196.556 247.725 198.392C243.957 199.209 240.535 201.176 237.933 204.022L221.134 194.12Z" fill="#EBEBEB"/>
<path d="M259.488 196.562C258.772 197.174 254.463 196.611 249.861 195.246C245.259 193.882 242.101 192.254 242.817 191.611C243.533 190.968 247.848 191.556 252.45 192.927C257.052 194.298 260.228 195.92 259.488 196.562Z" fill="#F5F5F5"/>
<path d="M253.092 195.314L253.386 195.626L252.419 195.412L252.132 195.112C251.245 194.91 250.371 194.659 249.512 194.359L249.726 194.139C250.402 194.381 251.091 194.585 251.789 194.751L251.354 194.292C250.21 193.979 248.906 193.612 248.539 193.214C248.258 192.927 248.766 192.835 250.247 193.123L249.959 192.817L250.926 193.031L251.214 193.331C251.954 193.508 252.713 193.716 253.337 193.943L253.172 194.175C252.603 193.986 252.058 193.833 251.556 193.71L252.003 194.175C253.141 194.487 254.451 194.849 254.794 195.234C255.063 195.509 254.592 195.595 253.092 195.314ZM250.969 193.882L250.595 193.49C250.118 193.41 249.983 193.447 250.075 193.539C250.35 193.705 250.653 193.821 250.969 193.882ZM253.264 194.916C252.995 194.75 252.698 194.634 252.389 194.573L252.75 194.953C253.203 195.026 253.368 195.002 253.264 194.916Z" fill="#EBEBEB"/>
<path d="M266.257 187.884L266.085 187.97C263.096 189.44 259.98 190.641 256.777 191.556C254.555 192.119 253.515 191.942 251.618 191.611C251.25 191.55 250.853 191.476 250.394 191.409C249.285 191.178 248.193 190.874 247.126 190.497C244.72 189.72 241.728 188.759 238.735 188.661H238.68C238.594 188.661 230.351 187.957 223.668 193.337L223.264 193.655L237.572 202.315L237.768 202.137C237.848 202.064 245.522 195.13 255.896 197.743C257.12 198.049 258.264 198.355 259.335 198.637C267.744 200.858 271.961 201.972 280.406 196.899L280.926 196.587L266.257 187.884ZM259.525 197.915C258.454 197.627 257.309 197.303 256.079 197.015C249.023 195.24 243.178 197.725 239.965 199.665C239.252 199.225 238.415 199.028 237.58 199.105C236.746 199.183 235.959 199.53 235.338 200.093L226.972 195.026C228.588 193.618 227.646 192.401 227.095 191.899C230.654 190.049 234.636 189.169 238.643 189.347C241.581 189.432 244.549 190.381 246.93 191.146C248.032 191.537 249.161 191.85 250.308 192.082L251.532 192.284C253.46 192.621 254.623 192.823 256.991 192.223C259.382 191.564 261.72 190.727 263.986 189.72C264.598 190.24 266.159 191.219 268.503 190.044L277.04 195.093C276.428 195.399 275.443 196.183 276.967 197.902C270.681 200.871 266.63 199.806 259.488 197.927L259.525 197.915Z" fill="#F5F5F5"/>
<path d="M77.1119 114.989C77.1119 114.989 76.9589 100.417 95.6616 93.5687C96.3759 93.3166 97.0629 92.9926 97.7118 92.6017C99.5842 91.5415 101.136 89.996 102.204 88.128C103.979 84.6518 106.488 79.6701 106.488 79.6701L124.683 76.3103C124.683 76.3103 122.847 84.3703 118.244 88.9236C113.642 93.4769 104.395 94.4989 100.001 100.735C97.7008 103.829 96.4178 107.561 96.3287 111.415L77.1119 114.989Z" fill="#EBEBEB"/>
<path d="M107.663 91.6103C107.547 92.565 103.905 94.9518 99.5355 96.9469C95.1659 98.942 91.7264 99.7866 91.8427 98.8319C91.959 97.8771 95.6004 95.4842 99.9701 93.4952C104.34 91.5062 107.779 90.6556 107.663 91.6103Z" fill="#F5F5F5"/>
<path d="M102.002 94.8906L102.43 94.9334L101.561 95.4047L101.145 95.3679C100.349 95.7949 99.5322 96.1809 98.6971 96.5246V96.2186C99.3631 95.953 100.015 95.6527 100.649 95.319L100.037 95.2578C98.9663 95.778 97.7485 96.3533 97.2099 96.2982C96.806 96.2615 97.1303 95.8636 98.4339 95.1048L98.0116 95.0681L98.8807 94.5907L99.2907 94.6274C99.97 94.2725 100.68 93.9359 101.292 93.6849V93.9665C100.735 94.199 100.221 94.4438 99.7619 94.6764L100.405 94.7376C101.469 94.2235 102.669 93.6543 103.207 93.7033C103.618 93.7461 103.299 94.1378 102.002 94.8906ZM99.4621 95.2027L98.9235 95.1537C98.5073 95.4108 98.4339 95.5209 98.5624 95.5332C98.879 95.4755 99.1834 95.3637 99.4621 95.2027ZM101.867 94.4744C101.555 94.5293 101.255 94.6369 100.98 94.7927L101.506 94.8416C101.898 94.6029 101.99 94.4867 101.867 94.4744Z" fill="#EBEBEB"/>
<path d="M107.057 80.6493L106.984 80.8268C105.687 83.8911 104.12 86.8342 102.302 89.6213C100.998 91.5062 100.093 92.0693 98.4463 93.0546L97.3998 93.6666C96.4138 94.2205 95.3914 94.7071 94.3398 95.1231C92.0142 96.1207 89.1316 97.3631 86.8122 99.2603L86.7571 99.3031C86.6898 99.3521 80.0251 104.242 78.5073 112.688L78.4155 113.196L94.86 110.356L94.8906 110.087C94.8906 109.983 96.1146 99.7131 105.668 94.8661C106.8 94.2908 107.859 93.7706 108.85 93.281C116.672 89.4315 120.564 87.516 123.624 78.1279L123.814 77.5587L107.057 80.6493ZM108.557 92.6384C107.565 93.128 106.5 93.6543 105.374 94.2296C98.8869 97.5283 96.1084 103.238 94.9701 106.812C94.1431 106.948 93.3826 107.349 92.804 107.955C92.2253 108.561 91.86 109.34 91.7632 110.172L82.1242 111.849C82.418 109.732 80.9002 109.432 80.1658 109.401C81.6306 105.668 84.054 102.388 87.1916 99.8906C89.4621 98.024 92.3202 96.7878 94.6213 95.8025C95.7098 95.3726 96.767 94.8675 97.7853 94.2908C98.1648 94.0522 98.5075 93.8441 98.8257 93.6788C100.496 92.6629 101.506 92.0509 102.896 90.0435C104.282 87.9706 105.509 85.7959 106.568 83.538C107.357 83.538 109.193 83.2381 110.184 80.8146L119.952 79.0031C119.67 79.6151 119.462 80.8391 121.739 81.1695C118.912 87.516 115.16 89.3826 108.557 92.6384Z" fill="#F5F5F5"/>
<path d="M212.603 51.6222C212.603 51.6222 221.544 40.0982 240.43 46.3406C241.146 46.5824 241.884 46.7546 242.633 46.8547C244.768 47.1749 246.95 46.9149 248.949 46.1019C252.493 44.474 257.517 42.1056 257.517 42.1056L273.876 50.7593C273.876 50.7593 267.438 55.9368 261.024 56.6589C254.61 57.3811 246.703 52.4423 239.39 54.6026C235.66 55.6067 232.334 57.7453 229.873 60.7226L212.603 51.6222Z" fill="#EBEBEB"/>
<path d="M251.061 52.2219C250.375 52.8951 246.036 52.5157 241.373 51.3713C236.709 50.2268 233.484 48.7519 234.169 48.0787C234.855 47.4055 239.188 47.7849 243.851 48.9294C248.515 50.0738 251.746 51.5487 251.061 52.2219Z" fill="#F5F5F5"/>
<path d="M244.586 51.2856L244.892 51.5793L243.919 51.408L243.619 51.1203C242.722 50.9682 241.835 50.7638 240.963 50.5084L241.165 50.2819C241.777 50.4594 242.536 50.6491 243.258 50.7899L242.799 50.3492C241.642 50.0922 240.351 49.7923 239.935 49.4129C239.641 49.1375 240.143 49.0212 241.642 49.2415L241.336 48.9478L242.309 49.113L242.609 49.4006C243.362 49.5414 244.127 49.7128 244.763 49.8964L244.61 50.1412C244.035 49.9759 243.478 49.8474 242.976 49.7495L243.441 50.1962C244.598 50.4471 245.889 50.747 246.275 51.1203C246.563 51.408 246.067 51.4998 244.586 51.2856ZM242.395 49.9575L242.003 49.5842C241.52 49.5291 241.391 49.5842 241.483 49.6577C241.768 49.8081 242.076 49.9095 242.395 49.9575ZM244.739 50.8755C244.46 50.7263 244.158 50.6249 243.845 50.5757L244.225 50.9368C244.684 50.9918 244.8 50.9612 244.739 50.8755Z" fill="#EBEBEB"/>
<path d="M257.376 43.25L257.211 43.3418C254.293 44.9399 251.24 46.2772 248.086 47.3382C245.889 48.0053 244.843 47.8767 242.933 47.6381L241.709 47.4912C240.59 47.3157 239.484 47.0642 238.398 46.7384C235.95 46.0775 232.921 45.2635 229.928 45.3125H229.855C229.769 45.3125 221.507 45.0065 215.081 50.6981L214.702 51.0347L229.39 58.9907L229.579 58.801C229.653 58.7275 236.991 51.4569 247.474 53.5439C248.698 53.7948 249.873 54.0396 250.957 54.2722C259.457 56.1082 263.723 57.0017 271.918 51.5304L272.419 51.1938L257.376 43.25ZM251.122 53.5867C250.039 53.3541 248.882 53.1032 247.64 52.8523C240.516 51.408 234.781 54.1804 231.666 56.304C230.935 55.8902 230.089 55.7261 229.256 55.8366C228.424 55.947 227.65 56.326 227.052 56.916L218.484 52.2525C220.026 50.7715 219.022 49.6026 218.453 49.1252C221.92 47.108 225.856 46.0379 229.867 46.0224C232.805 45.9673 235.81 46.769 238.227 47.4239C239.348 47.7604 240.491 48.0201 241.648 48.2011L242.872 48.3419C244.686 48.7011 246.561 48.5894 248.319 48.0175C250.682 47.2511 252.984 46.3059 255.204 45.1901C255.816 45.6735 257.45 46.5793 259.733 45.3002L268.496 49.9331C267.884 50.2635 266.96 51.0959 268.558 52.7422C262.413 55.998 258.325 55.1228 251.122 53.5867Z" fill="#F5F5F5"/>
<path d="M284.458 293.013C284.458 293.099 226.691 293.172 155.454 293.172C84.2174 293.172 26.4385 293.099 26.4385 293.013C26.4385 292.928 84.1929 292.854 155.454 292.854C226.715 292.854 284.458 292.928 284.458 293.013Z" fill="#382826"/>
<path d="M272.493 162.443L272.879 163.086C273.317 163.809 273.954 164.392 274.715 164.763L275.388 165.093L274.745 165.479C274.022 165.917 273.439 166.554 273.068 167.315L272.738 167.988L272.352 167.376C271.914 166.652 271.276 166.07 270.516 165.699L269.843 165.369L270.486 164.983C271.209 164.545 271.791 163.907 272.162 163.147L272.493 162.443Z" fill="#59A77D"/>
<path d="M85.9615 282.065L86.3348 282.677C86.7553 283.376 87.3668 283.941 88.0974 284.305L88.7522 284.623L88.1402 284.996C87.4422 285.419 86.8795 286.033 86.5184 286.765L86.194 287.414L85.8207 286.802C85.3993 286.104 84.7879 285.542 84.0582 285.18L83.4033 284.855L84.0153 284.482C84.7126 284.059 85.2768 283.448 85.6432 282.72L85.9615 282.065Z" fill="#59A77D"/>
<path d="M48.4275 78.2626L49.1007 79.3825C49.8569 80.6384 50.957 81.6514 52.2708 82.3018L53.4398 82.9138L52.3259 83.587C51.0674 84.3399 50.0535 85.4409 49.4067 86.7571L48.7947 87.926L48.1215 86.8061C47.3815 85.5374 46.2915 84.509 44.9819 83.844L43.813 83.232L44.9329 82.5588C46.1871 81.8032 47.1998 80.7056 47.8522 79.3948L48.4275 78.2626Z" fill="#59A77D"/>
<path d="M183.6 39.0884L184.273 40.2084C185.028 41.4656 186.128 42.479 187.443 43.1276L188.612 43.7396L187.492 44.4128C186.235 45.1674 185.222 46.268 184.573 47.583L183.998 48.7519L183.324 47.632C182.572 46.3638 181.472 45.338 180.154 44.676L178.979 44.064L180.099 43.3908C181.356 42.6362 182.37 41.5357 183.018 40.2206L183.6 39.0884Z" fill="#59A77D"/>
<path d="M285.804 137.351L286.067 137.786C286.358 138.277 286.782 138.676 287.291 138.936L287.75 139.163L287.309 139.432C286.817 139.722 286.418 140.147 286.159 140.656L285.932 141.121L285.669 140.68C285.378 140.189 284.954 139.79 284.445 139.53L283.986 139.303L284.427 139.04C284.917 138.748 285.316 138.324 285.578 137.816L285.804 137.351Z" fill="#59A77D"/>
<path d="M60.3981 134.805L60.6735 135.258C60.9772 135.771 61.4239 136.183 61.9587 136.445L62.4361 136.678L61.9771 136.953C61.4687 137.26 61.0588 137.706 60.7959 138.239L60.5572 138.716L60.288 138.257C59.9811 137.749 59.5352 137.339 59.0028 137.076L58.5254 136.843L58.9783 136.568C59.4907 136.264 59.9033 135.817 60.1656 135.283L60.3981 134.805Z" fill="#59A77D"/>
<path d="M107.045 55.2391L107.32 55.692C107.629 56.2007 108.074 56.6122 108.605 56.8793L109.077 57.1119L108.624 57.3873C108.115 57.6941 107.706 58.14 107.443 58.6725L107.204 59.1437L106.935 58.6908C106.623 58.1888 106.175 57.7856 105.643 57.528L105.172 57.2893L105.625 57.0201C106.139 56.6994 106.551 56.2387 106.812 55.692L107.045 55.2391Z" fill="#59A77D"/>
<path d="M213.215 196.654C213.215 197.309 217.162 214.732 217.162 214.732C217.162 214.732 225.381 209.145 228.503 206.513C231.624 203.882 246.746 189.916 246.746 189.916L255.816 198.288C255.816 198.288 225.828 239.078 215.21 241.532C209.757 242.787 203.71 238.668 202.535 235.755C199.885 229.255 195.84 201.556 195.84 201.556L201.721 198.955L213.215 196.654Z" fill="#E09A86"/>
<path d="M217.511 214.769C216.875 214.872 216.25 215.036 215.644 215.259C214.229 215.901 213.039 216.954 212.229 218.282C211.443 219.632 210.848 221.084 210.461 222.597C210.314 223.234 210.122 223.86 209.885 224.469C209.939 223.815 210.056 223.167 210.234 222.535C210.563 220.976 211.141 219.479 211.948 218.105C212.79 216.722 214.057 215.648 215.559 215.045C216.014 214.874 216.493 214.773 216.979 214.745C217.156 214.72 217.337 214.729 217.511 214.769Z" fill="#875149"/>
<path d="M244.347 192.131C244.347 192.131 252.609 182.878 255.945 183.141C259.28 183.404 264.072 184.126 265.406 183.9C267.091 183.782 268.782 183.782 270.467 183.9C270.467 183.9 279.127 179.212 280.724 179.579C280.724 179.579 282.212 179.5 282.726 180.344C282.726 180.344 286.018 178.257 288.393 179.555L279.764 186.746L282.395 186.415C282.395 186.415 290.149 182.315 292.603 185.136L286.747 188.282C286.747 188.282 291.612 188.208 292.346 190.185L281.447 191.935C281.447 191.935 260.737 193.667 259.641 194.145C258.546 194.622 254.164 200.265 254.164 200.265L244.347 192.131Z" fill="#E09A86"/>
<path d="M282.842 180.387C282.69 180.577 282.516 180.748 282.322 180.895C281.973 181.201 281.459 181.635 280.798 182.119C279.082 183.449 277.281 184.665 275.406 185.76C274.36 186.372 273.368 186.929 272.401 187.376C271.539 187.836 270.54 187.971 269.586 187.755L269.739 187.67C269.622 188.033 269.421 188.364 269.154 188.636C268.886 188.908 268.558 189.114 268.197 189.237C267.999 189.304 267.793 189.341 267.585 189.347C267.444 189.347 267.377 189.347 267.377 189.347C267.634 189.291 267.887 189.219 268.136 189.132C268.458 188.996 268.746 188.791 268.98 188.531C269.214 188.27 269.387 187.962 269.488 187.627L269.525 187.505L269.641 187.541C270.537 187.712 271.464 187.563 272.26 187.119C273.191 186.672 274.194 186.097 275.223 185.497C277.407 184.224 279.298 182.927 280.645 181.954L282.23 180.791C282.418 180.633 282.623 180.498 282.842 180.387Z" fill="#875149"/>
<path d="M279.764 186.911C279.436 187.278 279.044 187.583 278.607 187.811C277.594 188.428 276.479 188.859 275.314 189.084C274.629 189.218 273.968 189.243 273.399 189.347C272.896 189.444 272.411 189.618 271.961 189.861C271.542 190.133 271.052 190.273 270.553 190.265C270.998 190.089 271.432 189.885 271.85 189.653C272.31 189.366 272.815 189.16 273.344 189.041C273.956 188.912 274.568 188.882 275.247 188.747C276.842 188.382 278.367 187.762 279.764 186.911Z" fill="#875149"/>
<path d="M287.2 187.664C286.856 188.023 286.459 188.328 286.024 188.569C283.983 189.841 281.641 190.549 279.237 190.62C278.741 190.66 278.242 190.625 277.756 190.516C279.41 190.415 281.051 190.151 282.652 189.726C285.315 188.943 287.138 187.566 287.2 187.664Z" fill="#875149"/>
<path d="M120.454 246.024C111.513 259.941 101.133 277.352 94.811 293.038H202.523L189.671 246.024H120.454Z" fill="#382826"/>
<path d="M53.7583 195.112C53.7583 195.112 61.3655 206.268 63.9481 209.188C66.5307 212.107 77.4121 227.713 83.0731 233.961C88.7341 240.21 94.9092 243.649 98.9055 243.649C103.006 243.649 107.155 242.248 110.411 234.604C115.111 223.588 119.071 191.152 119.071 191.152L100.711 184.42L94.0401 218.007C92.247 216.22 63.9542 189.855 63.9542 189.855L57.467 192.547L53.7583 195.112Z" fill="#E09A86"/>
<path d="M30.1594 181.366C30.1594 181.366 30.5939 180.589 33.0113 180.938C35.4287 181.287 39.6699 183.79 40.6185 183.79C41.5671 183.79 52.1975 184.132 54.2722 184.653C56.3469 185.173 59.5722 185.485 61.4694 187.468L64.5294 190.197L54.2661 195.84C53.8825 195.328 53.3882 194.91 52.8201 194.617C52.2521 194.323 51.625 194.162 50.9858 194.145C48.6541 194.004 37.9441 193.465 37.9441 193.465L29.6453 191.556L19.1006 186.458C19.3402 185.884 19.7748 185.412 20.3278 185.127C20.8809 184.841 21.5169 184.76 22.1239 184.897C24.2842 185.418 28.3479 186.886 28.3479 186.886L31.8914 187.97L22.5584 183.514C23.1626 182.897 23.9297 182.464 24.7705 182.266C25.6113 182.067 26.4911 182.112 27.3075 182.394C30.2451 183.343 35.2635 185.589 35.2635 185.589L35.9551 185.332L30.1594 181.366Z" fill="#E09A86"/>
<path d="M41.8242 187.505C40.7456 187.588 39.6628 187.412 38.6663 186.991C37.6328 186.665 36.6926 186.096 35.9246 185.332C35.9796 185.252 37.1486 186.103 38.7704 186.697C40.3922 187.29 41.8304 187.413 41.8242 187.505Z" fill="#875149"/>
<path d="M39.8718 190.179C39.4216 190.289 38.9564 190.324 38.4948 190.283C36.2496 190.228 34.0636 189.552 32.1789 188.331C31.7755 188.101 31.4101 187.81 31.0957 187.468C32.421 188.274 33.8284 188.937 35.294 189.445C36.7894 189.852 38.3241 190.098 39.8718 190.179Z" fill="#875149"/>
<path d="M21.3712 187.578C21.0057 187.753 20.6995 188.031 20.4906 188.378C20.2817 188.725 20.1793 189.126 20.1961 189.53C23.7011 190.677 27.3018 191.506 30.9551 192.009" fill="#875149"/>
<path d="M100.515 232.174C100.448 232.174 100.576 231.244 100.478 229.726C100.421 228.856 100.292 227.993 100.093 227.144C99.8383 226.109 99.4901 225.099 99.0522 224.127C98.6008 223.16 98.0599 222.238 97.4365 221.373C96.9227 220.668 96.3516 220.007 95.7291 219.396C94.6581 218.355 93.8931 217.848 93.8931 217.799C94.0966 217.883 94.288 217.994 94.4622 218.129C94.6778 218.264 94.8824 218.415 95.0742 218.582C95.3068 218.772 95.5883 218.974 95.8576 219.237C96.512 219.836 97.1102 220.493 97.6446 221.201C98.9588 222.944 99.8814 224.95 100.35 227.083C100.538 227.95 100.647 228.833 100.674 229.72C100.693 230.059 100.693 230.398 100.674 230.736C100.671 230.993 100.648 231.248 100.607 231.501C100.604 231.729 100.573 231.955 100.515 232.174Z" fill="#875149"/>
<path d="M118.067 151.892C115.527 153.459 109.658 158.214 103.587 171.066C95.5027 188.159 93.4036 198.827 93.4036 198.827L114.891 206.501L121.403 150.283C121.403 150.283 118.906 151.378 118.067 151.892Z" fill="#FF7664"/>
<path d="M113.404 169.799C113.404 169.799 113.912 187.939 113.912 192.866C113.912 197.792 116.115 234.843 116.115 234.843C116.115 234.843 116.115 247.034 123.685 246.844C131.256 246.654 144.199 248.123 149.322 248.123C153.098 248.123 174.561 248.374 185.858 247.364C191.213 246.887 193.276 244.274 194.928 240.02C195.148 239.445 195.014 239.782 195.148 239.445C198.386 231.489 195.883 197.443 195.883 197.443L191.874 166.666L182.743 148.508L131.023 148.343C114.444 149.481 114.444 156.286 113.404 169.799Z" fill="#FF7664"/>
<path d="M204.365 163.404C195.846 149.267 182.743 148.532 182.743 148.532L190.479 212.284L196.599 210.583C197.052 210.43 219.549 201.458 219.549 201.458C219.549 201.458 209.604 172.082 204.365 163.404Z" fill="#FF7664"/>
<path d="M189.188 167.957C189.188 167.957 189.218 167.994 189.267 168.08C189.316 168.165 189.384 168.306 189.457 168.459C189.616 168.79 189.873 169.279 190.161 169.928C190.773 171.213 191.532 173.116 192.346 175.515C194.402 181.795 195.729 188.29 196.299 194.873C196.867 201.446 197.072 208.045 196.911 214.641C196.868 217.168 196.807 219.212 196.758 220.626C196.758 221.311 196.709 221.85 196.697 222.254C196.697 222.425 196.697 222.566 196.697 222.682C196.703 222.729 196.703 222.776 196.697 222.823C196.692 222.774 196.692 222.725 196.697 222.676V222.254C196.697 221.856 196.697 221.311 196.697 220.626C196.697 219.182 196.697 217.144 196.746 214.635C196.846 208.05 196.615 201.465 196.054 194.904C195.483 188.342 194.192 181.863 192.205 175.583C191.422 173.184 190.675 171.299 190.118 169.977C189.855 169.322 189.616 168.826 189.506 168.484L189.341 168.092C189.285 168.052 189.234 168.007 189.188 167.957Z" fill="#382826"/>
<g opacity="0.3">
<path opacity="0.3" d="M151.568 210.063C154.289 207.337 157.608 205.284 161.262 204.065C166.097 202.505 180.418 199.518 184.218 198.123C188.409 196.577 192.227 194.166 195.424 191.048L212.236 204.855C209.316 207.473 206.109 209.752 202.676 211.648C197.266 214.555 183.931 214.567 176.752 218.876C172.101 221.666 166.079 229.837 166.079 229.837L151.568 210.063Z" fill="black"/>
</g>
<g opacity="0.3">
<path opacity="0.3" d="M174.708 284.776C170.868 284.468 167.153 283.269 163.857 281.275C159.53 278.607 147.982 269.647 144.456 267.646C140.5 265.429 136.228 263.83 131.788 262.903L131.427 241.942C135.312 242.468 139.125 243.433 142.792 244.818C148.514 247.058 157.162 257.205 165.099 259.886C170.234 261.618 180.363 260.908 180.363 260.908L174.708 284.776Z" fill="black"/>
</g>
<g opacity="0.3">
<path opacity="0.3" d="M99.542 179.659C103.826 181.103 109.248 178.649 111.996 175.057C114.744 171.464 117.431 166.862 118.086 162.388C114.946 162.388 110.68 162.621 107.541 162.615L99.542 179.659Z" fill="black"/>
</g>
<path d="M114.444 184.591C114.472 184.757 114.484 184.925 114.481 185.093L114.536 186.538C114.572 187.823 114.621 189.634 114.683 191.856C114.805 196.366 114.97 202.554 115.148 209.39C115.325 216.226 115.564 222.431 115.76 226.917C115.87 229.139 115.956 230.944 116.017 232.23C116.017 232.842 116.066 233.313 116.084 233.674C116.094 233.841 116.094 234.009 116.084 234.176C116.045 234.011 116.022 233.843 116.017 233.674C115.98 233.319 115.937 232.835 115.888 232.236C115.772 231.012 115.662 229.176 115.527 226.93C115.27 222.444 115.019 216.244 114.817 209.396C114.615 202.548 114.505 196.348 114.444 191.856C114.444 189.634 114.413 187.829 114.401 186.538C114.401 185.926 114.401 185.454 114.401 185.093C114.401 184.925 114.415 184.757 114.444 184.591Z" fill="#382826"/>
<g opacity="0.3">
<path opacity="0.3" d="M115.007 222.523C109.414 209.916 110.246 195.84 114.444 182.682C115.056 195.503 115.338 209.69 115.026 222.523" fill="black"/>
</g>
<path d="M181.764 87.9383C181.054 85.6535 179.898 83.5323 178.362 81.698C176.826 79.8637 174.941 78.3527 172.817 77.2528C168.147 74.8721 162.578 74.6701 157.468 75.8452C152.357 77.0202 147.639 79.4866 143.177 82.2406C140.674 83.7828 138.183 85.4719 136.445 87.8281C133.226 92.1121 130.123 99.1195 129.952 104.487C129.817 108.826 131.788 119.622 133.728 123.502C134.42 124.885 136.041 126.103 138.012 127.131C140.101 130.975 142.86 134.415 146.158 137.29C147.076 134.352 147.996 131.415 148.918 128.477L181.764 87.9383Z" fill="#382826"/>
<path d="M179.084 82.669L170.516 81.3838C175.497 92.363 177.492 117.743 180.497 129.42C183.514 124.762 190.424 110.65 189.873 105.129C189.322 99.6091 189.2 81.4327 179.084 82.669Z" fill="#382826"/>
<path d="M139.138 102.32C139.414 95.8147 143.465 90.3679 149.726 88.5809L169.243 83.0055C177.713 81.8427 183.68 92.1366 184.481 100.643C185.369 110.099 186.036 120.087 185.13 127.192C183.294 141.476 172.474 143.624 172.474 143.624C172.474 143.624 172.664 150.356 172.774 154.536L161.195 178.704L143.208 149.744L139.114 102.498C139.077 102.253 139.126 102.645 139.138 102.32Z" fill="#E09A86"/>
<path d="M179.041 111.084C179.058 111.559 178.89 112.022 178.573 112.376C178.256 112.73 177.813 112.947 177.339 112.981C177.108 113.007 176.874 112.986 176.65 112.919C176.427 112.853 176.22 112.743 176.039 112.595C175.859 112.447 175.71 112.265 175.602 112.06C175.493 111.854 175.426 111.628 175.405 111.396C175.388 110.921 175.556 110.458 175.873 110.104C176.191 109.751 176.633 109.534 177.107 109.499C177.338 109.474 177.573 109.495 177.796 109.561C178.019 109.627 178.227 109.738 178.407 109.885C178.587 110.033 178.736 110.215 178.845 110.421C178.953 110.627 179.02 110.852 179.041 111.084Z" fill="#382826"/>
<path d="M182.505 106.274C182.29 106.519 180.877 105.539 178.912 105.607C176.948 105.674 175.546 106.696 175.326 106.464C175.216 106.359 175.436 105.925 176.048 105.448C176.878 104.833 177.879 104.491 178.912 104.468C179.931 104.432 180.935 104.724 181.776 105.301C182.376 105.741 182.615 106.164 182.505 106.274Z" fill="#382826"/>
<path d="M162.101 111.09C162.116 111.564 161.948 112.026 161.63 112.378C161.313 112.731 160.872 112.947 160.399 112.981C160.168 113.007 159.934 112.986 159.71 112.919C159.487 112.853 159.279 112.743 159.099 112.595C158.919 112.448 158.77 112.265 158.661 112.06C158.553 111.854 158.486 111.628 158.465 111.396C158.448 110.921 158.616 110.458 158.933 110.104C159.251 109.751 159.693 109.534 160.167 109.499C160.399 109.474 160.633 109.495 160.857 109.562C161.08 109.628 161.288 109.739 161.469 109.887C161.649 110.036 161.798 110.218 161.906 110.425C162.015 110.632 162.081 110.858 162.101 111.09Z" fill="#382826"/>
<path d="M163.875 106.806C163.655 107.051 162.241 106.072 160.283 106.139C158.324 106.206 156.911 107.229 156.69 106.996C156.586 106.892 156.801 106.457 157.413 105.98C158.244 105.366 159.244 105.024 160.277 105.001C161.297 104.966 162.302 105.255 163.147 105.827C163.765 106.274 163.979 106.696 163.875 106.806Z" fill="#382826"/>
<path d="M170.448 122.039C170.448 121.929 171.672 121.684 173.618 121.366C174.114 121.298 174.585 121.188 174.659 120.846C174.689 120.326 174.556 119.811 174.279 119.371L172.682 115.601C170.46 110.233 168.833 105.809 169.047 105.723C169.261 105.637 171.244 109.915 173.465 115.282L175.008 119.077C175.338 119.673 175.451 120.365 175.326 121.035C175.259 121.214 175.151 121.376 175.013 121.507C174.874 121.639 174.707 121.737 174.524 121.794C174.25 121.88 173.966 121.927 173.68 121.935C171.691 122.106 170.46 122.155 170.448 122.039Z" fill="#382826"/>
<path d="M153.471 139.102C153.471 139.102 158.367 148.734 172.566 146.966L172.474 143.624C165.843 143.905 159.265 142.339 153.471 139.102Z" fill="#875149"/>
<path d="M163.055 99.756C162.878 100.295 160.913 100.099 158.618 100.448C156.323 100.796 154.487 101.482 154.163 101.011C154.022 100.79 154.328 100.276 155.063 99.7376C156.045 99.075 157.166 98.6441 158.339 98.4777C159.513 98.3113 160.709 98.4135 161.837 98.7768C162.694 99.0767 163.129 99.4806 163.055 99.756Z" fill="#382826"/>
<path d="M181.697 100.295C181.366 100.747 179.995 100.331 178.374 100.356C176.752 100.38 175.381 100.747 175.05 100.295C174.904 100.068 175.106 99.6153 175.693 99.1746C176.482 98.6357 177.418 98.3516 178.374 98.3607C179.329 98.3503 180.263 98.6369 181.048 99.1807C181.636 99.6153 181.844 100.068 181.697 100.295Z" fill="#382826"/>
<path d="M180.246 87.773C179.316 85.6555 176.935 84.4376 174.628 84.3887C172.321 84.3397 170.087 85.2761 168.122 86.4878C159.793 91.6225 155.778 103.569 147.559 108.869C145.54 110.172 142.829 109.107 141.121 110.809C139.414 112.51 138.361 115.178 139.389 117.351C138.144 115.895 137.114 114.269 136.329 112.522C135.948 111.645 135.758 110.697 135.771 109.741C135.785 108.785 136.002 107.843 136.409 106.978C137.094 105.705 138.349 104.707 138.655 103.306C138.93 102.082 138.404 100.784 138.422 99.5051C138.534 98.2015 138.954 96.9431 139.646 95.8331C142.755 89.9395 147.119 84.5723 152.829 81.1451C156.563 78.8451 160.854 77.6073 165.24 77.5649C169.634 77.5431 173.89 79.0929 177.241 81.9345C179.163 83.6298 181.183 85.374 180.301 87.773" fill="#382826"/>
<path d="M141.372 112.565C141.213 112.161 133.722 109.695 133.845 117.584C133.967 125.246 141.654 123.514 141.66 123.294C141.666 123.073 141.372 112.565 141.372 112.565Z" fill="#BA7E6D"/>
<path d="M139.248 120.435C139.218 120.435 139.12 120.533 138.893 120.644C138.578 120.783 138.221 120.796 137.896 120.68C137.082 120.399 136.378 119.126 136.311 117.749C136.281 117.093 136.396 116.439 136.647 115.833C136.715 115.592 136.84 115.371 137.011 115.189C137.183 115.006 137.396 114.869 137.633 114.787C137.785 114.744 137.948 114.755 138.093 114.819C138.238 114.883 138.356 114.994 138.428 115.136C138.532 115.35 138.49 115.503 138.532 115.515C138.575 115.527 138.691 115.386 138.624 115.068C138.577 114.88 138.467 114.714 138.312 114.597C138.099 114.44 137.833 114.374 137.572 114.413C137.257 114.483 136.966 114.632 136.726 114.846C136.486 115.061 136.305 115.333 136.201 115.637C135.886 116.306 135.741 117.042 135.778 117.779C135.858 119.322 136.678 120.754 137.792 121.047C137.999 121.108 138.218 121.118 138.431 121.079C138.643 121.04 138.843 120.951 139.016 120.821C139.236 120.625 139.279 120.454 139.248 120.435Z" fill="#875149"/>
<path d="M138.22 108.716C138.381 108.643 138.533 108.553 138.673 108.446C138.961 108.251 139.407 107.987 139.934 107.596C141.411 106.447 142.761 105.145 143.961 103.71C145.72 101.561 147.355 99.3132 148.857 96.9775C150.665 94.1247 152.713 91.4304 154.977 88.9236C156.179 87.6701 157.515 86.5517 158.961 85.5882C160.317 84.7053 161.776 83.9921 163.306 83.4646C165.9 82.5513 168.643 82.136 171.391 82.2406C173.245 82.3001 175.083 82.6068 176.856 83.1525C177.468 83.3238 177.963 83.5258 178.288 83.6359C178.452 83.7046 178.622 83.7598 178.796 83.8012C178.645 83.709 178.485 83.6331 178.318 83.5747C177.858 83.3603 177.383 83.1763 176.899 83.0239C175.121 82.4217 173.266 82.0756 171.391 81.9958C168.607 81.8522 165.822 82.2491 163.19 83.1647C161.631 83.6915 160.145 84.4111 158.765 85.3067C157.293 86.2828 155.932 87.4177 154.707 88.6911C152.438 91.2134 150.391 93.9264 148.587 96.8001C147.109 99.1261 145.509 101.373 143.796 103.532C142.622 104.969 141.31 106.287 139.879 107.467C139.365 107.877 138.936 108.159 138.655 108.367C138.501 108.471 138.355 108.588 138.22 108.716Z" fill="#455A64"/>
<path d="M138.416 121.819C138.038 121.759 137.651 121.846 137.335 122.062C137.018 122.278 136.796 122.606 136.713 122.98C136.63 123.354 136.693 123.746 136.889 124.075C137.084 124.404 137.398 124.647 137.766 124.753C138.134 124.859 138.529 124.82 138.87 124.646C139.21 124.471 139.472 124.173 139.601 123.812C139.73 123.452 139.716 123.056 139.563 122.704C139.41 122.353 139.129 122.074 138.777 121.923" fill="white"/>
<path d="M138.777 121.923C139.116 122.175 139.368 122.525 139.499 122.926C139.562 123.136 139.57 123.359 139.522 123.573C139.475 123.787 139.375 123.986 139.23 124.15C139.066 124.358 138.844 124.513 138.592 124.595C138.34 124.676 138.07 124.681 137.815 124.608C137.56 124.535 137.333 124.388 137.162 124.186C136.991 123.983 136.885 123.734 136.856 123.471C136.823 123.257 136.844 123.038 136.917 122.834C136.989 122.63 137.111 122.447 137.272 122.302C137.595 122.029 137.995 121.864 138.416 121.831C138.416 121.831 138.3 121.751 138.055 121.757C137.838 121.767 137.625 121.821 137.43 121.916C137.234 122.011 137.06 122.144 136.918 122.309C136.776 122.473 136.669 122.665 136.603 122.872C136.538 123.079 136.516 123.298 136.537 123.514C136.568 123.843 136.696 124.155 136.907 124.409C137.118 124.664 137.4 124.849 137.718 124.94C138.035 125.032 138.373 125.025 138.686 124.921C139 124.817 139.275 124.621 139.475 124.358C139.645 124.155 139.758 123.91 139.803 123.649C139.848 123.388 139.824 123.12 139.732 122.871C139.624 122.541 139.409 122.257 139.12 122.063C138.924 121.917 138.783 121.904 138.777 121.923Z" fill="#382826"/>
<path d="M140.209 110.827C140.148 112.926 140.111 115.111 141.133 116.947C142.155 118.783 144.628 119.97 146.415 118.881C147.871 117.994 148.251 116.078 148.465 114.383C149.077 109.487 149.248 104.542 149.873 99.652L140.209 110.827Z" fill="#382826"/>
<path d="M178.257 84.1806C178.257 84.2296 177.578 84.0766 176.354 84.0704C174.619 84.0883 172.904 84.4524 171.311 85.1414C170.209 85.602 169.161 86.1807 168.184 86.8673C167.065 87.6686 165.994 88.5351 164.977 89.4622C162.629 91.5686 160.543 93.9501 158.765 96.5552C157.829 97.9506 157.009 99.3766 156.109 100.705C155.264 101.999 154.267 103.189 153.141 104.248C151.203 105.987 149.074 107.501 146.794 108.759C144.86 109.848 143.245 110.595 142.131 111.158L140.84 111.77C140.692 111.848 140.536 111.91 140.375 111.953C140.503 111.848 140.645 111.759 140.797 111.69L142.058 111.023C143.147 110.448 144.738 109.634 146.641 108.514C148.878 107.232 150.967 105.709 152.872 103.973C153.967 102.928 154.936 101.76 155.76 100.49C156.641 99.1746 157.462 97.7425 158.404 96.3349C160.202 93.6995 162.322 91.2983 164.714 89.1868C165.746 88.2524 166.838 87.3857 167.982 86.5919C168.986 85.9038 170.064 85.3291 171.195 84.8783C172.828 84.2 174.586 83.8746 176.354 83.9236C176.831 83.9361 177.305 83.9872 177.774 84.0766C177.938 84.0933 178.1 84.1282 178.257 84.1806Z" fill="#455A64"/>
<path d="M139.861 106.102C139.661 106.288 139.439 106.449 139.2 106.58L137.29 107.773L136.648 108.171C136.394 108.328 136.111 108.43 135.815 108.471C135.634 108.496 135.45 108.457 135.295 108.361C135.21 108.307 135.139 108.234 135.087 108.148C135.035 108.062 135.003 107.965 134.995 107.865C135.002 107.511 135.12 107.169 135.332 106.886C135.987 105.76 136.709 104.53 137.48 103.214L137.792 103.489C137.056 104.059 136.228 104.498 135.344 104.787C134.464 105.077 133.541 105.212 132.614 105.184C132.378 105.188 132.143 105.155 131.917 105.087C131.785 105.051 131.662 104.988 131.557 104.902C131.451 104.815 131.365 104.707 131.305 104.585C131.257 104.456 131.242 104.318 131.261 104.182C131.28 104.046 131.333 103.917 131.415 103.807C131.538 103.63 131.68 103.466 131.837 103.318C132.816 102.309 133.659 101.178 134.346 99.9519C134.954 98.8006 135.476 97.606 135.907 96.3778C135.882 96.7325 135.81 97.0823 135.693 97.4182C135.426 98.3462 135.065 99.2444 134.616 100.099C133.949 101.374 133.109 102.55 132.119 103.593C131.843 103.869 131.568 104.205 131.684 104.426C131.8 104.646 132.223 104.774 132.627 104.762C134.395 104.805 136.124 104.236 137.523 103.153L138.416 102.461L137.804 103.428L135.607 107.1C135.437 107.32 135.334 107.583 135.307 107.859C135.307 108.073 135.509 108.195 135.754 108.171C136.241 108.054 136.702 107.847 137.113 107.559L139.083 106.47C139.328 106.319 139.588 106.195 139.861 106.102Z" fill="#455A64"/>
<path d="M163.086 125.87C163.215 125.284 163.545 124.761 164.019 124.392C164.493 124.024 165.081 123.832 165.681 123.85C166.119 123.896 166.539 124.048 166.905 124.293C167.271 124.539 167.571 124.87 167.78 125.258C167.98 125.65 168.1 126.079 168.132 126.518C168.165 126.957 168.109 127.399 167.97 127.816L167.933 128C167.538 128.452 167.012 128.771 166.427 128.913C165.843 129.054 165.23 129.011 164.671 128.789C164.122 128.546 163.669 128.127 163.382 127.599C163.095 127.071 162.991 126.463 163.086 125.87Z" fill="#875149"/>
<path d="M166.464 128.655C166.464 128.655 166.385 128.863 166.072 129.046C165.617 129.303 165.084 129.383 164.573 129.273C164.192 129.183 163.835 129.009 163.53 128.764C163.225 128.518 162.979 128.207 162.81 127.853C162.519 127.188 162.437 126.451 162.573 125.739C162.71 125.027 163.059 124.372 163.575 123.863C163.763 123.691 163.988 123.566 164.232 123.496C164.476 123.425 164.733 123.413 164.983 123.459C165.7 123.674 166.361 124.046 166.917 124.548C167.878 125.276 168.447 125.772 168.398 125.833C168.349 125.894 167.688 125.552 166.66 124.921C166.13 124.521 165.53 124.222 164.891 124.04C164.729 124.014 164.563 124.027 164.407 124.077C164.251 124.127 164.109 124.213 163.992 124.328C163.722 124.615 163.514 124.955 163.38 125.325C163.225 125.684 163.146 126.07 163.146 126.461C163.146 126.851 163.225 127.237 163.38 127.596C163.503 127.884 163.686 128.142 163.917 128.353C164.148 128.564 164.422 128.723 164.72 128.82C165.14 128.952 165.591 128.952 166.011 128.82C166.268 128.728 166.427 128.618 166.464 128.655Z" fill="#382826"/>
<path d="M213.478 114.242C217.153 115.791 220.415 118.176 223.007 121.207C226.391 125.24 234.831 137.816 237.652 140.919C240.767 144.338 244.566 147.063 248.803 148.918L242.107 170.424C238.459 168.643 235.024 166.455 231.869 163.9C226.973 159.842 221.765 147.051 214.831 141.837C210.345 138.465 200.143 135.87 200.143 135.87L213.478 114.242Z" fill="#59A77D"/>
<g opacity="0.2">
<path opacity="0.2" d="M247.499 149.561C247.438 149.518 240.767 145.742 237.94 142.602C235.938 140.393 232.854 136.194 229.867 132.131C227.609 129.071 225.473 126.145 223.864 124.175C218.723 117.871 214.629 116.598 214.457 116.549L214.059 116.427L202.431 134.579L203.16 134.775C203.233 134.775 210.742 136.825 214.286 139.414C219.004 142.859 221.728 147.443 224.365 151.874C226.25 155.044 228.037 158.037 230.485 160.656C232.662 162.987 235.098 165.063 237.744 166.843C238.798 167.562 239.901 168.208 241.042 168.777L241.618 169.04L247.499 149.561ZM214.91 138.545C212.799 137.002 209.482 135.687 206.954 134.824C207.378 134.289 207.596 133.62 207.566 132.939C207.272 131.831 206.342 131.604 205.381 132.051L212.958 120.264L213.019 120.356C214.188 121.996 216.477 120.582 216.63 118.893C216.668 118.923 216.709 118.95 216.752 118.973C219.117 120.61 221.225 122.59 223.007 124.848C224.598 126.8 226.728 129.695 228.98 132.767C229.243 133.116 229.5 133.471 229.757 133.82C228.031 133.024 225.755 133.404 223.607 136.415C221.624 139.206 221.342 142.969 221.862 145.846C219.976 143.028 217.625 140.551 214.91 138.52V138.545ZM231.257 159.922C228.888 157.388 227.138 154.444 225.283 151.354L224.757 150.466C226.001 150.839 227.333 150.794 228.549 150.338C229.765 149.881 230.798 149.039 231.489 147.939C232.921 145.534 234.292 142.088 233.325 138.624C234.782 140.54 236.116 142.229 237.162 143.392C239.164 145.595 242.609 148.214 244.678 149.714C244.519 149.758 244.37 149.835 244.241 149.938C244.113 150.042 244.006 150.17 243.928 150.316C243.851 150.462 243.803 150.622 243.789 150.787C243.775 150.951 243.794 151.117 243.845 151.274C243.98 151.953 244.617 152.792 245.388 152.627L245.492 152.584L241.514 165.674C240.902 163.838 238.876 164.695 239.194 166.501C236.279 164.645 233.612 162.426 231.257 159.897V159.922Z" fill="white"/>
</g>
<path d="M226.048 146.219L225.345 147.339L224.451 146.782L225.136 145.687C224.348 145.15 223.745 144.383 223.411 143.49L224.665 142.572C224.918 143.28 225.366 143.904 225.957 144.371L227.003 142.694C226.183 141.807 225.308 140.742 226.201 139.303C226.868 138.239 228.129 137.755 229.653 138.459L230.351 137.345L231.244 137.902L230.559 138.997C231.183 139.445 231.679 140.049 231.997 140.748L230.773 141.702C230.533 141.17 230.178 140.698 229.733 140.319L228.668 142.027C229.494 142.914 230.357 143.967 229.469 145.381C228.821 146.427 227.572 146.88 226.048 146.219ZM227.958 144.603C228.178 144.248 228.037 143.9 227.744 143.508L226.881 144.891C227.065 144.982 227.275 145.003 227.473 144.95C227.672 144.897 227.844 144.774 227.958 144.603ZM227.927 141.219L228.821 139.793C228.625 139.702 228.403 139.685 228.195 139.746C227.988 139.806 227.81 139.941 227.695 140.124C227.474 140.472 227.621 140.833 227.927 141.219Z" fill="#59A77D"/>
<path d="M152.388 200.944C155.206 198.124 158.643 195.999 162.425 194.738C167.431 193.117 182.26 190.026 186.195 188.582C190.544 186.978 194.506 184.476 197.823 181.238L215.228 195.534C212.2 198.247 208.874 200.608 205.314 202.572C199.708 205.583 185.901 205.595 178.465 210.057C173.649 212.945 167.413 221.409 167.413 221.409L152.388 200.944Z" fill="#59A77D"/>
<g opacity="0.2">
<path opacity="0.2" d="M197.909 182.706C197.848 182.749 191.844 187.492 187.86 188.949C185.063 189.971 180.014 191.25 175.124 192.486C171.452 193.423 167.921 194.322 165.491 195.057C157.719 197.45 154.995 200.76 154.885 200.901L154.622 201.219L167.076 218.857L167.529 218.245C167.578 218.178 172.284 211.985 176.018 209.677C180.981 206.617 186.25 205.803 191.348 205.026C195.02 204.469 198.435 203.943 201.789 202.664C204.768 201.521 207.608 200.043 210.253 198.257C211.327 197.556 212.35 196.779 213.313 195.932L213.778 195.497L197.909 182.706ZM175.418 208.753C173.196 210.124 170.73 212.707 168.973 214.726C168.629 214.146 168.085 213.71 167.443 213.502C166.311 213.355 165.748 214.114 165.803 215.191L157.731 203.735H157.841C159.8 203.264 159.353 200.614 157.841 199.836L157.957 199.751C160.381 198.166 163.028 196.951 165.809 196.146C168.215 195.405 171.703 194.524 175.393 193.588L176.66 193.27C175.277 194.567 174.769 196.825 176.752 199.947C178.588 202.829 181.972 204.506 184.837 205.106C181.513 205.78 178.329 207.014 175.418 208.753ZM201.348 201.642C198.111 202.866 194.726 203.398 191.14 203.949L190.124 204.102C190.93 203.09 191.384 201.843 191.417 200.55C191.45 199.256 191.061 197.988 190.308 196.935C188.613 194.708 185.938 192.137 182.352 191.752C184.684 191.14 186.746 190.528 188.215 189.983C191.012 188.961 194.733 186.758 196.905 185.399C196.887 185.563 196.901 185.73 196.949 185.888C196.996 186.046 197.075 186.193 197.181 186.32C197.287 186.447 197.417 186.552 197.564 186.627C197.712 186.702 197.872 186.747 198.037 186.758C198.717 186.893 199.726 186.617 199.873 185.84C199.876 185.803 199.876 185.766 199.873 185.73L210.528 194.334C208.588 194.237 208.625 196.409 210.418 196.782C207.615 198.784 204.567 200.417 201.348 201.642Z" fill="white"/>
</g>
<path d="M186.752 201.348L187.529 202.419L186.678 203.031L185.92 201.984C185.124 202.512 184.187 202.783 183.233 202.762L182.86 201.25C183.61 201.282 184.355 201.102 185.008 200.73L183.851 199.126C182.713 199.555 181.403 199.971 180.405 198.6C179.671 197.578 179.696 196.232 180.92 195.081L180.148 194.016L181.005 193.404L181.764 194.451C182.411 194.042 183.154 193.809 183.918 193.778L184.347 195.265C183.764 195.291 183.194 195.443 182.676 195.711L183.857 197.345C184.989 196.905 186.305 196.507 187.266 197.86C187.988 198.9 187.964 200.216 186.752 201.348ZM182.829 197.725L181.844 196.36C181.685 196.507 181.586 196.707 181.564 196.923C181.543 197.138 181.601 197.354 181.727 197.529C181.966 197.89 182.376 197.884 182.829 197.749V197.725ZM185.975 198.949C185.73 198.612 185.363 198.606 184.879 198.729L185.834 200.057C185.976 199.923 186.067 199.745 186.093 199.552C186.119 199.359 186.077 199.164 185.975 198.998V198.949Z" fill="#59A77D"/>
<path d="M153.979 24.6085L133.171 21.8117L130.968 22.032C127.198 22.5461 124.187 23.458 119.701 28.2071C115.338 32.8277 113.502 44.6332 113.502 44.6332C113.502 44.6332 118.679 41.971 126.654 42.1484C134.628 42.3259 137.529 43.7213 137.529 43.7213C137.529 43.7213 137.584 35.7653 140.993 31.775C145.252 26.824 153.979 24.6085 153.979 24.6085Z" fill="#59A77D"/>
<g opacity="0.2">
<path opacity="0.2" d="M153.979 24.6085L133.171 21.8117L130.968 22.032C127.198 22.5461 124.187 23.458 119.701 28.2071C115.338 32.8277 113.502 44.6332 113.502 44.6332C113.502 44.6332 118.679 41.971 126.654 42.1484C134.628 42.3259 137.529 43.7213 137.529 43.7213C137.529 43.7213 137.584 35.7653 140.993 31.775C145.252 26.824 153.979 24.6085 153.979 24.6085Z" fill="black"/>
</g>
<path d="M130.968 22.032C130.968 22.032 135.864 21.3404 143.612 27.999C148.569 32.2463 157.076 45.2757 157.076 45.2757C158.844 42.8515 161.084 40.8095 163.661 39.272C170.571 35.1777 174.53 34.1435 174.53 34.1435C174.53 34.1435 170.136 27.54 163.533 24.939C147.596 18.6293 130.968 22.032 130.968 22.032Z" fill="#59A77D"/>
<g opacity="0.2">
<path opacity="0.2" d="M137.431 21.2364C138.514 21.8117 144.91 24.0761 149.334 23.6844C153.759 23.2927 154.842 22.5767 153.055 22.1116C150.572 21.4649 148.02 21.1197 145.454 21.0834C142.779 20.9715 140.1 21.0226 137.431 21.2364Z" fill="white"/>
</g>
<g opacity="0.2">
<path opacity="0.2" d="M172.217 32.742C169.268 29.6352 165.888 26.9682 162.18 24.8227C161.397 24.3943 160.564 23.9843 159.732 23.5987C156.886 22.7345 153.976 22.0961 151.029 21.6893C153.82 22.3013 157.437 22.595 162.088 25.7897C164.419 27.4115 166.639 29.1861 168.735 31.1018C168.006 31.5241 167.994 32.9807 168.514 33.5498C166.6 34.2874 164.765 35.2162 163.037 36.3222C161.448 37.3721 159.918 38.5081 158.453 39.7249C158.581 39.4521 158.632 39.1494 158.6 38.8498C158.428 37.8828 157.064 37.2524 156.152 37.5217C155.968 37.5534 155.798 37.6354 155.658 37.7586C155.519 37.8818 155.416 38.0414 155.362 38.2194C152.743 34.4066 148.392 28.3417 145.882 26.2364C143.351 24.1815 140.535 22.5036 137.523 21.2548H137.455C136.378 21.3221 135.527 21.4384 134.683 21.5302C138.463 22.7872 141.987 24.7129 145.087 27.2156C148.63 30.19 156.421 42.0322 156.501 42.1546L156.905 42.7666L157.443 42.277C159.435 40.5085 161.54 38.873 163.747 37.381C166.272 35.7618 169.035 34.5476 171.935 33.7824L172.994 33.5437L172.217 32.742Z" fill="white"/>
</g>
<path d="M78.1709 172.376L97.0021 175.589L98.9789 175.454C102.418 175.112 105.178 174.383 109.383 170.216C113.496 166.158 115.54 155.528 115.54 155.528C115.54 155.528 110.754 157.78 103.52 157.364C96.2861 156.947 93.6973 155.583 93.6973 155.583C93.6973 155.583 93.3913 162.823 90.1661 166.317C86.1697 170.644 78.1709 172.376 78.1709 172.376Z" fill="#59A77D"/>
<g opacity="0.2">
<path opacity="0.2" d="M78.1709 172.376L97.0021 175.589L98.9789 175.454C102.418 175.112 105.178 174.383 109.383 170.216C113.496 166.158 115.54 155.528 115.54 155.528C115.54 155.528 110.754 157.78 103.52 157.364C96.2861 156.947 93.6973 155.583 93.6973 155.583C93.6973 155.583 93.3913 162.823 90.1661 166.317C86.1697 170.644 78.1709 172.376 78.1709 172.376Z" fill="black"/>
</g>
<path d="M98.9789 175.454C98.9789 175.454 94.5236 175.926 87.6875 169.634C83.324 165.619 76.0595 153.508 76.0595 153.508C74.3776 155.654 72.2793 157.438 69.8906 158.753C63.489 162.247 59.8538 163.037 59.8538 163.037C59.8538 163.037 63.6053 169.157 69.5172 171.752C83.7707 178.012 98.9789 175.454 98.9789 175.454Z" fill="#59A77D"/>
<g opacity="0.2">
<path opacity="0.2" d="M93.0853 175.975C92.1183 175.411 86.39 173.153 82.3569 173.386C78.3239 173.618 77.3447 174.212 78.9297 174.695C81.1635 175.361 83.4687 175.757 85.7964 175.877C88.2219 176.055 90.6559 176.088 93.0853 175.975Z" fill="white"/>
</g>
<g opacity="0.2">
<path opacity="0.2" d="M61.8733 164.408C64.4512 167.319 67.431 169.847 70.7228 171.917C71.4205 172.333 72.1611 172.731 72.9261 173.104C75.4812 173.985 78.1028 174.661 80.7658 175.124C78.2504 174.457 74.9762 174.09 70.8514 171.042C68.791 169.49 66.8326 167.808 64.9884 166.005C65.6616 165.644 65.7228 164.322 65.2699 163.79C67.0327 163.183 68.7286 162.398 70.3312 161.446C71.8128 160.547 73.243 159.566 74.6152 158.508C74.4899 158.751 74.4348 159.025 74.4561 159.298C74.5785 160.179 75.7963 160.797 76.647 160.583C76.8153 160.558 76.9737 160.488 77.1053 160.38C77.2368 160.273 77.3365 160.131 77.3936 159.971C79.6458 163.514 83.3974 169.151 85.6128 171.158C87.8387 173.105 90.3351 174.719 93.0241 175.95H93.0792C94.0645 175.919 94.8418 175.84 95.6068 175.785C92.2166 174.519 89.0821 172.653 86.3533 170.277C83.2321 167.468 76.5613 156.458 76.4756 156.348L76.1268 155.779L75.6188 156.207C73.7579 157.745 71.795 159.156 69.7436 160.43C67.3994 161.821 64.8509 162.835 62.1916 163.435L61.2246 163.618L61.8733 164.408Z" fill="white"/>
</g>
<path d="M213.086 61.3836C213.086 61.3836 217.487 57.8034 223.087 52.4606C229.916 45.9489 244.078 32.9745 256.135 37.8828L269.96 54.4068C269.96 54.4068 263.228 53.0053 254.17 56.3529C246.147 59.3211 240.516 65.2208 237.976 67.932C236.954 69.0275 235.614 70.4963 234.537 71.5305C232.701 73.2686 230.651 75.6799 227.401 78.2993L213.086 61.3836Z" fill="#59A77D"/>
<g opacity="0.2">
<path opacity="0.2" d="M245.945 49.3456C247.542 53.1338 245.608 57.5586 241.624 59.2416C237.64 60.9246 233.117 59.2416 231.52 55.435C229.922 51.6283 231.862 47.2219 235.847 45.545C239.831 43.8682 244.353 45.5634 245.945 49.3456Z" fill="white"/>
</g>
<path d="M242.138 54.4068L242.964 55.2146L242.352 55.8756L241.52 55.08C240.914 55.6527 240.147 56.0264 239.323 56.151L238.772 54.927C239.424 54.8439 240.039 54.5788 240.547 54.162L239.323 52.938C238.405 53.4766 237.334 54.0274 236.263 52.9931C235.473 52.2281 235.296 51.0653 236.177 49.8902L235.357 49.0885L236 48.4276L236.807 49.217C237.307 48.7683 237.914 48.4563 238.57 48.3113L239.182 49.5353C238.687 49.6417 238.22 49.8501 237.811 50.1473L239.072 51.3713C239.984 50.8266 241.042 50.288 242.089 51.3101C242.836 52.0812 243.013 53.244 242.138 54.4068ZM238.221 51.8731L237.168 50.845C237.053 50.994 236.996 51.1804 237.008 51.3688C237.02 51.5571 237.101 51.7344 237.236 51.867C237.499 52.124 237.829 52.0628 238.221 51.8731ZM241.116 52.4851C240.853 52.2281 240.504 52.2832 240.137 52.4851L241.159 53.4827C241.282 53.3428 241.347 53.1612 241.342 52.9748C241.336 52.7884 241.26 52.6111 241.128 52.479L241.116 52.4851Z" fill="#59A77D"/>
<g opacity="0.2">
<path opacity="0.2" d="M255.106 38.0174L254.966 37.9746C254.611 37.8583 246.22 35.343 234.372 44.3945C229.944 47.7837 225.8 51.5272 221.979 55.588C219.531 58.1094 217.774 59.927 215.645 61.0531L215.082 61.3469L227.664 76.9774L228.074 76.5245C228.197 76.396 239.929 63.4828 245.571 59.4986C250.045 56.3407 258.723 51.2856 266.514 52.9135L268.056 53.244L255.106 38.0174ZM244.99 58.648C240.914 61.5182 233.974 68.7092 230.1 72.8219C229.503 72.2374 228.706 71.9029 227.871 71.887C227.036 71.8711 226.226 72.1748 225.608 72.7362L218.711 64.1682C219.049 63.9249 219.328 63.6079 219.526 63.2411C219.725 62.8743 219.837 62.4672 219.855 62.0507C219.874 61.2455 219.648 60.4536 219.206 59.7802C220.302 58.8132 221.422 57.6626 222.732 56.3101C226.513 52.2856 230.619 48.5786 235.008 45.2268C240.963 40.6796 245.988 39.2231 249.152 38.8008C249.977 38.6872 250.809 38.63 251.642 38.6294C252.084 39.4821 252.775 40.1798 253.624 40.6293C254.473 41.0787 255.438 41.2586 256.392 41.1448L263.601 49.6271C263.099 49.7862 262.505 50.2391 262.671 51.5671C255.737 51.8425 248.846 55.9246 244.99 58.648Z" fill="white"/>
</g>
<path d="M37.6564 219.482C37.6564 219.482 42.0506 223.068 48.4154 227.468C56.1816 232.841 71.7509 244.084 69.3947 256.905L56.0164 273.784C56.0164 273.784 56.0164 266.881 50.9184 258.717C46.3652 251.44 39.4496 247.089 36.2916 245.179C35.0126 244.402 33.3051 243.386 32.0688 242.542C30.0064 241.128 27.2218 239.573 24.0027 236.924L37.6564 219.482Z" fill="#59A77D"/>
<g opacity="0.2">
<path opacity="0.2" d="M56.0879 249.239C59.4703 246.91 60.2248 242.136 57.7731 238.575C55.3214 235.015 50.592 234.016 47.2096 236.345C43.8272 238.674 43.0727 243.449 45.5244 247.009C47.9761 250.57 52.7055 251.568 56.0879 249.239Z" fill="white"/>
</g>
<path d="M50.3003 246.477L49.6883 247.456L48.911 246.96L49.523 246.006C48.8415 245.528 48.3225 244.853 48.0359 244.072L49.1436 243.282C49.3604 243.904 49.7461 244.453 50.2575 244.867L51.1877 243.405C50.4716 242.621 49.7189 241.679 50.5145 240.436C51.1265 239.506 52.2097 239.096 53.5439 239.727L54.1559 238.76L54.9331 239.255L54.3211 240.204C54.8555 240.604 55.2772 241.135 55.5451 241.746L54.468 242.572C54.2605 242.104 53.9535 241.686 53.5684 241.348L52.632 242.842C53.3481 243.619 54.0947 244.549 53.3052 245.779C52.7177 246.685 51.6283 247.095 50.3003 246.477ZM51.9833 245.082C52.1791 244.776 52.0567 244.47 51.8058 244.121L51.0347 245.345C51.1976 245.425 51.3842 245.442 51.559 245.394C51.7339 245.345 51.8849 245.234 51.9833 245.082ZM51.9833 242.126L52.7728 240.902C52.6021 240.822 52.4086 240.807 52.2277 240.859C52.0468 240.911 51.8905 241.026 51.7875 241.183C51.5977 241.471 51.7263 241.783 52.02 242.126H51.9833Z" fill="#59A77D"/>
<g opacity="0.2">
<path opacity="0.2" d="M69.046 255.902V255.749C69.0888 255.381 69.8538 246.654 58.5869 236.887C54.3734 233.237 49.8706 229.936 45.1229 227.015C42.1608 225.136 40.0249 223.778 38.4949 221.917L38.0849 221.428L25.3369 236.942L25.8632 237.248C26.0162 237.34 41.0408 246.214 46.0592 250.932C50.0556 254.678 56.7631 262.15 56.7509 270.112V271.636L69.046 255.902ZM46.7936 250.167C43.1584 246.765 34.7128 241.41 29.8963 238.46C30.3474 237.758 30.5136 236.911 30.3612 236.091C30.2088 235.271 29.7492 234.54 29.0762 234.047L36.0592 225.553C36.366 225.835 36.7332 226.045 37.133 226.165C37.5327 226.284 37.9545 226.312 38.3664 226.244C39.1589 226.105 39.8883 225.722 40.4533 225.149C41.6222 226.03 42.9809 226.893 44.5721 227.903C49.2788 230.797 53.7409 234.072 57.9137 237.695C63.5747 242.591 66.0227 247.23 67.0937 250.247C67.3712 251.032 67.5941 251.836 67.7608 252.652C67.0169 253.257 66.475 254.074 66.2071 254.995C65.9393 255.915 65.9582 256.895 66.2614 257.805L59.3947 266.569C59.1438 266.11 58.5685 265.62 57.3078 266.049C55.6309 259.317 50.2453 253.399 46.7936 250.167Z" fill="white"/>
</g>
<path d="M8.56812 118.147C8.56812 118.147 18.3601 106.721 37.4912 114.077C38.2184 114.353 38.9706 114.558 39.7373 114.689C41.9204 115.121 44.1796 114.961 46.2796 114.224C50.0128 112.724 55.3188 110.552 55.3188 110.552L71.7388 120.27C71.7388 120.27 64.8538 125.289 58.1891 125.711C51.5244 126.133 43.648 120.662 36.0041 122.529C32.1172 123.37 28.5883 125.4 25.9061 128.336L8.56812 118.147Z" fill="#59A77D"/>
<g opacity="0.2">
<path opacity="0.2" d="M48.1522 120.662C47.4117 121.323 42.9685 120.717 38.2194 119.309C33.4703 117.902 30.2206 116.249 30.9611 115.558C31.7016 114.866 36.1447 115.503 40.8939 116.916C45.643 118.33 48.8866 120.001 48.1522 120.662Z" fill="white"/>
</g>
<path d="M41.5305 119.383L41.8304 119.701L40.8329 119.481L40.5391 119.169C39.6263 118.96 38.7253 118.703 37.8402 118.398L38.0605 118.171C38.6725 118.385 39.4497 118.618 40.1841 118.783L39.7374 118.312C38.5562 117.987 37.2159 117.614 36.8304 117.204C36.5489 116.904 37.0691 116.812 38.5991 117.106L38.2992 116.794L39.2967 117.008L39.5905 117.32C40.3555 117.504 41.1389 117.718 41.7815 117.932L41.6101 118.177C41.0287 117.981 40.4595 117.816 39.9455 117.694L40.4045 118.177C41.5795 118.495 42.9014 118.869 43.2809 119.267C43.5624 119.585 43.0483 119.67 41.5305 119.383ZM39.3396 117.902L38.954 117.498C38.4583 117.418 38.342 117.455 38.4155 117.547C38.7016 117.716 39.0139 117.836 39.3396 117.902ZM41.708 118.967C41.4284 118.798 41.1221 118.678 40.8023 118.612L41.1756 119.003C41.6162 119.083 41.7937 119.058 41.708 118.967Z" fill="#59A77D"/>
<g opacity="0.2">
<path opacity="0.2" d="M55.08 111.733L54.8964 111.819C51.816 113.327 48.6065 114.556 45.3064 115.491C43.0114 116.103 41.9404 115.888 39.9881 115.546L38.7641 115.338C37.6196 115.102 36.4928 114.787 35.392 114.395C32.944 113.599 29.8289 112.608 26.7444 112.51H26.6649C26.5792 112.51 18.0969 111.776 11.1874 117.327L10.7773 117.657L25.5265 126.586L25.7285 126.396C25.8081 126.323 33.7212 119.175 44.419 121.868C45.6858 122.186 46.867 122.48 47.9686 122.792C56.6345 125.081 60.9797 126.231 69.6946 120.999L70.2209 120.68L55.08 111.733ZM48.1522 122.07C47.0445 121.776 45.8633 121.458 44.5965 121.145C37.3198 119.309 31.2916 121.88 27.9807 123.881C25.5327 122.596 23.8374 123.753 23.2132 124.316L14.584 119.095C16.2486 117.645 15.2755 116.39 14.7125 115.87C18.3794 113.958 22.4844 113.045 26.6159 113.22C29.6453 113.306 32.7053 114.285 35.1839 115.056C36.3212 115.458 37.4847 115.781 38.6662 116.023L39.8902 116.231C41.8731 116.58 43.0726 116.782 45.5145 116.164C47.9916 115.49 50.4139 114.628 52.7605 113.587C53.3725 114.12 55.0066 115.129 57.424 113.924L66.2245 119.126C65.5636 119.438 64.5783 120.252 66.1511 122.027C59.6578 125.111 55.4901 124.01 48.1522 122.07Z" fill="white"/>
</g>
<path d="M232.56 272.34C232.56 272.34 231.403 257.364 250.18 249.084C250.896 248.771 251.58 248.39 252.224 247.946C254.067 246.711 255.546 245.006 256.508 243.007C258.093 239.335 260.314 234.01 260.314 234.01L278.803 229.31C278.803 229.31 277.469 237.725 273.044 242.725C268.619 247.725 259.176 249.408 255.076 256.128C252.916 259.466 251.847 263.392 252.016 267.364L232.56 272.34Z" fill="#59A77D"/>
<g opacity="0.2">
<path opacity="0.2" d="M262.389 246.226C262.334 247.217 258.754 249.898 254.396 252.272C250.039 254.647 246.551 255.73 246.606 254.721C246.661 253.711 250.241 251.048 254.598 248.674C258.956 246.299 262.444 245.234 262.389 246.226Z" fill="white"/>
</g>
<path d="M256.789 249.99H257.23L256.367 250.541H255.938C255.148 251.036 254.331 251.487 253.49 251.893V251.581C254.159 251.263 254.811 250.909 255.443 250.522H254.782C253.723 251.134 252.511 251.801 251.948 251.789C251.532 251.789 251.838 251.342 253.129 250.473H252.695L253.558 249.922H253.986C254.653 249.512 255.363 249.115 255.975 248.821L256.024 249.108C255.473 249.384 254.959 249.665 254.5 249.941H255.167C256.226 249.329 257.426 248.668 257.976 248.717C258.374 248.698 258.068 249.127 256.789 249.99ZM254.194 250.485H253.637C253.227 250.773 253.16 250.896 253.295 250.896C253.616 250.811 253.92 250.672 254.194 250.485ZM256.642 249.574C256.325 249.651 256.023 249.781 255.749 249.959H256.293C256.661 249.696 256.752 249.574 256.624 249.574H256.642Z" fill="#59A77D"/>
<g opacity="0.2">
<path opacity="0.2" d="M261.012 235.008L260.951 235.198C259.826 238.44 258.414 241.575 256.734 244.567C255.51 246.593 254.629 247.223 253.007 248.362C252.689 248.582 252.346 248.821 251.973 249.09C250.993 249.73 249.971 250.303 248.913 250.804C246.593 251.991 243.705 253.46 241.453 255.571L241.398 255.626C241.33 255.681 234.8 261.134 233.827 269.959L233.766 270.486L250.522 266.404V266.128C250.522 266.018 251.092 255.369 260.565 249.727C261.691 249.059 262.744 248.454 263.729 247.891C271.49 243.405 275.357 241.159 277.86 231.293L278.013 230.681L261.012 235.008ZM263.381 247.248C262.389 247.823 261.33 248.429 260.21 249.084C253.766 252.921 251.3 258.986 250.363 262.744C249.525 262.943 248.774 263.409 248.223 264.071C247.671 264.733 247.349 265.555 247.303 266.416L237.511 268.796C237.664 266.593 236.091 266.391 235.326 266.422C236.579 262.482 238.848 258.942 241.905 256.159C244.109 254.084 246.967 252.615 249.249 251.446C250.339 250.927 251.392 250.334 252.401 249.671C252.768 249.402 253.111 249.164 253.423 248.943C255.076 247.787 256.067 247.107 257.365 244.928C258.654 242.703 259.773 240.383 260.712 237.988C261.526 237.927 263.393 237.499 264.25 234.928L274.158 232.413C273.913 233.092 273.785 234.365 276.147 234.518C273.681 241.256 269.947 243.423 263.381 247.248Z" fill="white"/>
</g>
<path d="M259.959 124.12C259.959 124.12 255.798 109.683 272.499 97.7486C273.14 97.3011 273.735 96.7906 274.274 96.2248C275.838 94.6445 276.948 92.6721 277.487 90.5148C278.295 86.5735 279.397 80.937 279.397 80.937L296.532 72.5893C296.532 72.5893 296.924 81.0961 293.607 86.8918C290.29 92.6874 281.367 96.2431 278.723 103.654C277.286 107.363 277.035 111.426 278.007 115.282L259.959 124.12Z" fill="#59A77D"/>
<g opacity="0.2">
<path opacity="0.2" d="M283.87 92.4854C284.017 93.4646 281.061 96.8429 277.267 100.025C273.472 103.208 270.284 104.995 270.137 104.016C269.99 103.036 272.952 99.6581 276.741 96.4757C280.529 93.2933 283.723 91.5001 283.87 92.4854Z" fill="white"/>
</g>
<path d="M279.152 97.308L279.586 97.2284L278.852 97.9445L278.429 98.0179C277.754 98.6709 277.041 99.284 276.293 99.8539L276.226 99.5479C276.815 99.1018 277.381 98.6259 277.921 98.1219L277.279 98.2321C276.361 99.0399 275.308 99.9518 274.757 100.068C274.347 100.135 274.562 99.6519 275.651 98.5381L275.216 98.6177L275.951 97.9016L276.373 97.8282C276.948 97.2896 277.56 96.7572 278.099 96.341L278.203 96.6164C277.719 96.9959 277.273 97.3814 276.881 97.7364L277.542 97.6201C278.454 96.8123 279.494 95.9187 280.039 95.8269C280.437 95.7168 280.229 96.1941 279.152 97.308ZM276.704 98.3239L276.153 98.4157C275.816 98.789 275.773 98.9175 275.902 98.8931C276.202 98.7482 276.475 98.5537 276.71 98.3178L276.704 98.3239ZM278.894 96.9347C278.599 97.0728 278.33 97.2613 278.099 97.4916L278.637 97.3998C278.968 97.0448 279.023 96.9041 278.901 96.9285L278.894 96.9347Z" fill="#59A77D"/>
<g opacity="0.2">
<path opacity="0.2" d="M280.247 81.7632V81.959C279.802 85.3597 279.056 88.7143 278.019 91.9836C277.242 94.2174 276.496 95.013 275.137 96.4512C274.868 96.7388 274.58 97.0632 274.268 97.3814C273.442 98.2061 272.561 98.9729 271.63 99.6764C269.592 101.31 267.065 103.348 265.29 105.858L265.241 105.919C265.192 105.986 259.904 112.681 260.73 121.488L260.779 122.014L276.361 114.628L276.318 114.352C276.318 114.248 274.696 103.703 282.836 96.2615C283.797 95.3802 284.709 94.5723 285.559 93.8135C292.248 87.8465 295.602 84.8538 296.037 74.7007V74.0887L280.247 81.7632ZM285.045 93.2566C284.188 94.0216 283.277 94.8355 282.316 95.7046C276.777 100.766 275.584 107.21 275.437 111.072C274.653 111.435 274.008 112.044 273.601 112.805C273.194 113.567 273.045 114.441 273.179 115.295L264.066 119.615C263.772 117.431 262.187 117.547 261.446 117.73C261.872 113.618 263.378 109.691 265.81 106.347C267.548 103.899 270.051 101.855 272.065 100.227C273.029 99.5011 273.942 98.7076 274.794 97.8527C275.1 97.5161 275.406 97.2407 275.645 96.9347C277.028 95.472 277.86 94.5846 278.705 92.2039C279.502 89.7644 280.116 87.2687 280.541 84.7375C281.33 84.5111 283.068 83.7155 283.387 81.0288L292.567 76.5551C292.469 77.2772 292.603 78.5441 294.947 78.2197C293.925 85.3312 290.7 88.2076 285.045 93.2566Z" fill="white"/>
</g>
<path d="M82.5467 75.1475C78.5707 74.8293 74.7235 73.5888 71.3104 71.5244C66.8367 68.7582 54.8721 59.468 51.2246 57.4056C47.1256 55.1151 42.7008 53.464 38.1033 52.5096L37.73 30.8019C41.7523 31.3506 45.7001 32.3503 49.4987 33.7824C55.4229 36.1019 64.3826 46.6344 72.5956 49.3823C77.92 51.1815 88.4036 50.441 88.4036 50.441L82.5467 75.1475Z" fill="#59A77D"/>
<g opacity="0.2">
<path opacity="0.2" d="M39.1681 51.6283L39.5598 51.7446C39.6332 51.7446 46.763 53.807 50.4472 55.9001C53.0421 57.3689 57.2894 60.386 61.3959 63.3053C64.511 65.5207 67.4547 67.5893 69.5967 68.9785C76.4572 73.3482 80.7412 73.2625 80.9248 73.2625H81.3349L86.7144 52.3627L85.9616 52.4055C85.882 52.4055 78.1096 52.8401 73.9358 51.4937C68.3788 49.7066 64.3519 46.2121 60.4718 42.8277C57.6872 40.4165 55.0617 38.1337 51.9038 36.414C49.0906 34.8798 46.1112 33.6725 43.0237 32.8154C41.7979 32.4612 40.5482 32.1953 39.2844 32.0198L38.6724 31.9464L39.1681 51.6283ZM73.5992 52.5463C76.0778 53.3419 79.6458 53.55 82.3202 53.5806C82.0976 54.2213 82.1128 54.9207 82.363 55.5512C82.975 56.5059 83.942 56.4325 84.7131 55.7042L81.2247 69.2784L81.139 69.2049C79.5111 68.0177 77.7792 70.0801 78.1647 71.7264L78.024 71.6897C75.2441 70.8635 72.6037 69.6258 70.1904 68.0177C68.0667 66.6651 65.1352 64.5843 62.0324 62.375L60.9675 61.6161C62.8525 61.8303 64.9027 60.7532 65.992 57.222C67.0018 53.9539 66.0838 50.2941 64.6885 47.7237C67.3554 49.8205 70.3578 51.451 73.5686 52.5463H73.5992ZM51.3346 37.3809C54.3946 39.0456 56.965 41.2855 59.7007 43.6662C59.9638 43.8865 60.2209 44.1129 60.4779 44.3394C59.185 44.381 57.941 44.8434 56.9347 45.6564C55.9285 46.4693 55.215 47.5884 54.9026 48.8437C54.2906 51.5732 54.0825 55.2819 56.1266 58.2624C54.1192 56.916 52.3261 55.692 50.9613 54.9392C48.3726 53.4704 44.2783 52.0628 41.8425 51.2672C42.1056 51.0811 42.2847 50.7986 42.3409 50.4812C42.397 50.1638 42.3257 49.8371 42.1424 49.572C41.7997 48.96 40.9184 48.348 40.2574 48.7703L40.1718 48.8376L39.8352 35.1655C41.0163 36.7016 42.6504 35.2695 41.7813 33.6539C45.1115 34.4844 48.3219 35.7368 51.3346 37.3809Z" fill="white"/>
</g>
<path d="M60.588 48.7397L60.9001 47.4484L61.9283 47.6993L61.6223 48.9233C62.537 49.1872 63.3488 49.7255 63.9479 50.4655L63.036 51.763C62.5736 51.1702 61.9546 50.7186 61.2489 50.4594L60.7777 52.3811C61.8426 52.9931 63.0054 53.703 62.6137 55.3493C62.3138 56.5733 61.2673 57.424 59.5965 57.2342L59.2905 58.5133L58.2624 58.2624L58.5684 57.0384C57.8361 56.8037 57.1779 56.3818 56.6589 55.8144L57.528 54.5108C57.9274 54.9359 58.4138 55.2699 58.9539 55.49L59.4313 53.5316C58.3664 52.9564 57.2159 52.2281 57.5953 50.6063C57.8829 49.4068 58.9111 48.5622 60.588 48.7397ZM59.2844 50.8694C59.1865 51.2734 59.4313 51.561 59.8291 51.8425L60.2147 50.2574C60.0097 50.2247 59.7998 50.2691 59.6257 50.3822C59.4516 50.4952 59.3256 50.6689 59.2722 50.8694H59.2844ZM60.3738 54.0702L59.976 55.692C60.1908 55.7178 60.4076 55.6642 60.5856 55.5414C60.7637 55.4185 60.8908 55.2349 60.9429 55.0249C61.0225 54.6394 60.7716 54.3456 60.3615 54.0702H60.3738Z" fill="#59A77D"/>
<path d="M174.794 276.771C170.819 276.453 166.973 275.21 163.563 273.142C159.084 270.382 147.119 261.091 143.471 259.029C139.374 256.739 134.952 255.088 130.356 254.133L129.977 232.425C134 232.97 137.948 233.97 141.746 235.406C147.67 237.725 156.629 248.227 164.849 251.006C170.167 252.799 180.65 252.064 180.65 252.064L174.794 276.771Z" fill="#59A77D"/>
<g opacity="0.2">
<path opacity="0.2" d="M131.384 253.252L131.776 253.362C131.849 253.362 138.985 255.43 142.67 257.523C145.258 258.992 149.506 262.009 153.612 264.929C156.727 267.144 159.671 269.213 161.819 270.602C168.674 274.972 172.964 274.886 173.141 274.886H173.557L178.931 253.98L178.178 254.023C178.098 254.023 170.332 254.457 166.152 253.111C160.595 251.324 156.568 247.829 152.688 244.445C149.903 242.034 147.272 239.751 144.12 238.031C141.311 236.499 138.336 235.294 135.252 234.439C134.026 234.085 132.777 233.819 131.513 233.643L130.901 233.57L131.384 253.252ZM165.815 254.17C168.3 254.965 171.862 255.173 174.543 255.204C174.32 255.845 174.335 256.544 174.585 257.175C175.197 258.129 176.164 258.056 176.935 257.328L173.441 270.902L173.355 270.828C171.734 269.641 170.002 271.704 170.387 273.35L170.246 273.313C167.467 272.499 164.827 271.271 162.413 269.672C160.289 268.319 157.358 266.238 154.255 264.029L153.184 263.27C155.075 263.484 157.119 262.407 158.208 258.876C159.218 255.608 158.306 251.948 156.905 249.378C159.583 251.467 162.596 253.087 165.815 254.17ZM143.582 239.004C146.642 240.663 149.212 242.909 151.954 245.283C152.211 245.51 152.468 245.736 152.731 245.957C151.437 246 150.192 246.464 149.185 247.278C148.178 248.092 147.464 249.211 147.149 250.467C146.537 253.197 146.329 256.905 148.373 259.88C146.391 258.515 144.591 257.334 143.233 256.563C140.638 255.094 136.55 253.686 134.108 252.891C134.245 252.799 134.363 252.68 134.454 252.541C134.544 252.403 134.605 252.247 134.634 252.084C134.663 251.921 134.658 251.754 134.62 251.593C134.582 251.432 134.512 251.28 134.414 251.146C134.071 250.534 133.19 249.922 132.523 250.351L132.437 250.418L132.107 236.74C133.288 238.282 134.916 236.85 134.047 235.234C137.373 236.078 140.578 237.345 143.582 239.004Z" fill="white"/>
</g>
<path d="M152.823 250.357L153.141 249.072L154.163 249.323L153.857 250.577C154.775 250.838 155.589 251.377 156.189 252.12L155.283 253.368C154.82 252.773 154.198 252.321 153.49 252.064L153 253.98C154.065 254.592 155.234 255.302 154.836 256.948C154.542 258.172 153.496 259.023 151.825 258.833L151.513 260.112L150.491 259.861L150.797 258.637C150.062 258.405 149.401 257.983 148.881 257.413L149.744 256.128C150.142 256.553 150.626 256.887 151.164 257.107L151.641 255.149C150.577 254.574 149.432 253.845 149.805 252.224C150.13 251.03 151.164 250.186 152.823 250.357ZM151.519 252.493C151.421 252.897 151.666 253.184 152.064 253.466L152.455 251.881C152.252 251.851 152.044 251.897 151.871 252.01C151.699 252.122 151.574 252.294 151.519 252.493ZM152.608 255.694L152.211 257.328C152.425 257.352 152.641 257.298 152.819 257.175C152.997 257.053 153.124 256.87 153.178 256.661C153.276 256.257 153 255.963 152.608 255.694Z" fill="#59A77D"/>
<path d="M130.742 99.4255C126.831 99.5234 119.646 99.3704 112.853 96.2554C104.438 92.3936 100.796 86.855 100.796 86.855L98.9604 107.473C103.856 119.016 123.312 119.811 132.382 120.025C129.983 110.038 129.358 105.344 130.742 99.4255Z" fill="#59A77D"/>
<g opacity="0.2">
<path opacity="0.2" d="M127.66 112.281C129.146 108.623 127.227 104.39 123.375 102.826C119.523 101.262 115.197 102.959 113.711 106.617C112.226 110.275 114.145 114.508 117.997 116.072C121.848 117.636 126.175 115.939 127.66 112.281Z" fill="white"/>
</g>
<path d="M119.738 105.784V104.67H120.625V105.76C121.427 105.781 122.202 106.048 122.847 106.525L122.376 107.749C121.876 107.359 121.275 107.121 120.644 107.063V108.722C121.629 108.979 122.737 109.334 122.755 110.76C122.755 111.812 122.094 112.724 120.699 112.926V114.028H119.811V112.945C119.156 112.904 118.523 112.693 117.975 112.333L118.404 111.109C118.818 111.37 119.283 111.539 119.769 111.604V109.915C118.783 109.67 117.694 109.303 117.676 107.908C117.688 106.898 118.349 105.992 119.738 105.784ZM119.126 107.798C119.126 108.147 119.389 108.33 119.775 108.477V107.1C119.34 107.216 119.126 107.479 119.126 107.798ZM120.687 110.16V111.568C120.866 111.544 121.03 111.455 121.148 111.319C121.266 111.183 121.331 111.008 121.329 110.827C121.348 110.497 121.078 110.307 120.687 110.16Z" fill="#59A77D"/>
<g opacity="0.2">
<path opacity="0.2" d="M131.843 117.694C127.314 117.846 122.78 117.577 118.3 116.892C111.158 115.937 106.751 113.514 104.309 111.647C103.673 111.164 103.07 110.638 102.504 110.074C102.782 109.195 102.786 108.252 102.515 107.371C102.244 106.49 101.711 105.712 100.986 105.142L101.843 94.4744C102.29 94.707 103.006 94.7988 103.795 93.7829C108.691 98.3055 116.152 100.215 120.625 100.98C123.838 101.414 127.077 101.619 130.319 101.592L130.509 100.509C127.279 100.55 124.05 100.366 120.846 99.9579C115.656 99.0644 106.323 96.6103 102.131 90.2149L101.323 88.9909L99.7866 108.11L99.8539 108.238C100.013 108.557 104.009 115.968 118.214 117.865C122.779 118.563 127.399 118.841 132.015 118.697L131.843 117.694Z" fill="white"/>
</g>
</svg>
