<svg width="300" height="300" viewBox="0 0 300 300" fill="none" xmlns="http://www.w3.org/2000/svg">
<path d="M238.506 278.214C222.816 271.998 215.616 255.264 212.43 239.448C211.896 236.808 210.954 234.114 211.656 231.522C212.358 228.93 214.89 226.668 217.494 227.214C219.66 227.67 221.046 229.728 222.576 231.342C224.622 233.493 227.234 235.022 230.112 235.752C231.984 236.226 234.174 236.262 235.602 234.966C237.57 233.166 237.096 229.998 236.46 227.394L232.914 212.85C232.278 210.252 231.642 207.594 231.864 204.924C232.086 202.254 233.334 199.524 235.65 198.258C237.966 196.992 241.362 197.658 242.49 200.106C242.964 201.114 243.006 202.266 243.336 203.328C243.666 204.39 244.452 205.47 245.55 205.53C246.648 205.59 247.53 204.6 248.13 203.652C250.194 200.388 251.214 196.566 252.12 192.792C253.026 189.018 253.866 185.172 255.624 181.728C257.382 178.284 260.22 175.206 263.898 174.108C267.576 173.01 272.1 174.372 273.912 177.81C275.724 181.248 274.47 185.496 272.844 189.018C270.43 194.244 267.273 199.094 263.472 203.418C262.794 204.192 262.05 205.032 261.966 206.076C261.81 207.942 263.868 209.28 265.716 209.442C267.81 209.628 269.874 208.926 271.962 208.686C274.05 208.446 276.462 208.818 277.686 210.552C279.384 212.952 277.818 216.282 276.06 218.628C272.539 223.33 268.234 227.389 263.334 230.628C261.588 231.78 259.734 232.878 258.486 234.588C257.238 236.298 256.884 238.866 258.252 240.48C259.62 242.094 262.158 242.112 264.078 241.266C265.998 240.42 267.534 238.902 269.28 237.726C272.538 235.524 277.218 234.672 280.248 237.222C282.234 238.902 283.044 241.698 282.852 244.308C282.66 246.918 281.616 249.366 280.452 251.682C276.288 259.8 270.228 267 262.608 271.8C254.988 276.6 247.476 279.252 238.506 278.196" fill="#F5F5F5"/>
<path d="M240.222 267.414C240.8 258.248 241.904 249.123 243.528 240.084C243.928 237.684 244.34 235.31 244.764 232.962C245.172 230.628 245.58 228.312 246.12 226.068C247.16 221.766 248.437 217.526 249.948 213.366C251.358 209.388 252.846 205.662 254.262 202.188C255.678 198.714 257.07 195.504 258.462 192.63C260.63 188.083 263.158 183.717 266.022 179.574C267.03 178.11 267.852 176.994 268.422 176.25C268.698 175.898 268.914 175.616 269.07 175.404C269.139 175.303 269.22 175.21 269.31 175.128C269.253 175.237 269.187 175.342 269.112 175.44L268.512 176.31C267.972 177.078 267.174 178.206 266.19 179.682C263.401 183.861 260.926 188.241 258.786 192.786C257.424 195.66 256.056 198.87 254.652 202.344C253.248 205.818 251.784 209.544 250.386 213.528C248.894 217.68 247.63 221.91 246.6 226.2C246.066 228.432 245.664 230.73 245.256 233.07C244.848 235.41 244.44 237.786 244.026 240.186C242.403 249.206 241.289 258.311 240.69 267.456" fill="#E0E0E0"/>
<path d="M246.252 226.02C246.039 225.689 245.863 225.335 245.73 224.964C245.424 224.28 245.01 223.272 244.53 222.018C243.546 219.51 242.304 216.018 240.93 212.13C239.556 208.242 238.29 204.774 237.276 202.29C236.766 201.048 236.346 200.046 236.046 199.356C235.867 199.007 235.73 198.639 235.638 198.258C235.874 198.573 236.076 198.913 236.238 199.272C236.592 199.938 237.06 200.922 237.612 202.152C238.716 204.612 240.06 208.086 241.416 211.962C242.772 215.838 243.936 219.252 244.854 221.892L245.916 224.892C246.067 225.255 246.179 225.633 246.252 226.02Z" fill="#E0E0E0"/>
<path d="M278.262 211.8C277.845 212.002 277.409 212.163 276.96 212.28C276.12 212.556 274.902 212.958 273.408 213.48C270.408 214.536 266.346 216.144 261.924 218.118C257.502 220.092 253.578 222.054 250.782 223.554C249.378 224.298 248.256 224.928 247.482 225.354C247.092 225.602 246.68 225.815 246.252 225.99C246.602 225.689 246.979 225.421 247.38 225.192C248.13 224.706 249.228 224.028 250.614 223.248C253.374 221.664 257.286 219.648 261.72 217.662C265.5 215.958 269.365 214.45 273.3 213.144C274.806 212.646 276.048 212.298 276.9 212.076C277.344 211.939 277.8 211.846 278.262 211.8Z" fill="#E0E0E0"/>
<path d="M240.486 266.7C240.365 266.595 240.256 266.476 240.162 266.346L239.304 265.272C238.56 264.33 237.504 262.944 236.256 261.222C233.73 257.766 230.394 252.882 226.782 247.452C223.17 242.022 219.876 237.108 217.428 233.604L214.512 229.464C214.194 229.014 213.912 228.642 213.726 228.336C213.54 228.03 213.462 227.934 213.48 227.922C213.498 227.91 213.6 228.03 213.804 228.276L214.662 229.35C215.406 230.286 216.462 231.672 217.71 233.4C220.236 236.856 223.572 241.734 227.19 247.17C230.808 252.606 234.09 257.514 236.538 261.012L239.454 265.152L240.24 266.286C240.414 266.544 240.504 266.688 240.486 266.7Z" fill="#E0E0E0"/>
<path d="M281.598 241.8C281.477 241.913 281.342 242.01 281.196 242.088L279.996 242.826L275.598 245.502C271.878 247.764 266.784 250.944 261.162 254.466C255.54 257.988 250.404 261.126 246.642 263.31C244.764 264.402 243.228 265.266 242.16 265.848L240.924 266.508C240.783 266.594 240.632 266.66 240.474 266.706C240.595 266.593 240.73 266.496 240.876 266.418L242.076 265.68L246.474 263.004C250.194 260.742 255.288 257.562 260.916 254.04C266.544 250.518 271.668 247.386 275.43 245.202C277.308 244.11 278.838 243.24 279.912 242.658L281.148 242.004C281.288 241.915 281.439 241.846 281.598 241.8Z" fill="#E0E0E0"/>
<path d="M36.6618 95.4854L28.647 136.756L89.879 148.648L97.8938 107.377L36.6618 95.4854Z" fill="#EBEBEB"/>
<path d="M97.992 107.91C97.7817 108.079 97.5545 108.226 97.314 108.348L95.322 109.512L87.924 113.712L63.366 127.38L63.168 127.488L63.018 127.314L62.652 126.888L44.256 105.132L38.73 98.502L37.248 96.702C37.0635 96.4995 36.9006 96.2783 36.762 96.042C36.9682 96.2259 37.1589 96.4266 37.332 96.642L38.898 98.394L44.562 104.91L63.084 126.546L63.45 126.972L63.096 126.906L87.732 113.388L95.214 109.356L97.26 108.288C97.4914 108.139 97.7365 108.013 97.992 107.91Z" fill="#E0E0E0"/>
<path d="M28.746 137.292C28.644 137.166 34.35 132.408 41.484 126.654C48.618 120.9 54.48 116.334 54.576 116.454C54.672 116.574 48.972 121.338 41.838 127.092C34.704 132.846 28.842 137.4 28.746 137.292Z" fill="#E0E0E0"/>
<path d="M75.0301 119.892C75.1681 119.82 78.63 126.324 82.752 134.406C86.8741 142.488 90.114 149.112 89.952 149.184C89.79 149.256 86.352 142.758 82.224 134.664C78.096 126.57 74.8921 119.964 75.0301 119.892Z" fill="#E0E0E0"/>
<path d="M122.574 87.21L83.868 91.26L80.682 64.368L119.388 60.312L122.574 87.21Z" fill="#F5F5F5"/>
<path d="M119.55 60.6C119.459 60.7434 119.352 60.8763 119.232 60.996L118.272 62.082L114.672 66.036L102.702 79.008L102.606 79.116L102.48 79.032L102.18 78.84C96.288 74.952 90.948 71.442 87.048 68.874L82.482 65.814L81.282 64.968C81.1342 64.8778 80.9955 64.7733 80.868 64.656C81.0256 64.7258 81.1762 64.8101 81.318 64.908L82.584 65.7C83.712 66.414 85.284 67.422 87.21 68.658L102.396 78.534L102.696 78.726H102.474C107.178 73.698 111.42 69.126 114.522 65.832L118.194 61.962C118.614 61.53 118.95 61.182 119.208 60.924C119.313 60.8073 119.428 60.699 119.55 60.6Z" fill="#E0E0E0"/>
<path d="M84.03 91.572C83.946 91.518 86.43 87.522 89.556 82.656C92.682 77.79 95.292 73.89 95.376 73.95C95.46 74.01 92.976 77.994 89.85 82.866C86.724 87.738 84.108 91.626 84.03 91.572Z" fill="#E0E0E0"/>
<path d="M108.204 72.264C108.276 72.198 111.582 75.552 115.596 79.764C119.61 83.976 122.796 87.45 122.736 87.516C122.676 87.582 119.358 84.228 115.344 80.016C111.33 75.804 108.132 72.336 108.204 72.264Z" fill="#E0E0E0"/>
<path d="M68.9401 54.612L47.55 39.798L57.654 24.78L79.0441 39.588L68.9401 54.612Z" fill="#F5F5F5"/>
<path d="M78.99 39.816C78.8807 39.8503 78.7681 39.8724 78.654 39.882L77.694 40.014L74.154 40.452L62.43 41.808H62.334V41.718C62.334 41.64 62.292 41.562 62.268 41.484L58.908 29.85C58.5 28.374 58.164 27.174 57.93 26.31L57.672 25.35C57.6358 25.2389 57.6117 25.1242 57.6 25.008C57.6494 25.1123 57.6896 25.2207 57.72 25.332C57.792 25.572 57.894 25.89 58.014 26.286C58.272 27.138 58.614 28.332 59.07 29.796C59.946 32.796 61.146 36.894 62.466 41.424L62.532 41.652L62.412 41.568L74.136 40.278L77.688 39.918L78.654 39.834C78.7654 39.82 78.8777 39.814 78.99 39.816Z" fill="#E0E0E0"/>
<path d="M47.4961 40.026C47.4961 39.966 50.4961 39.018 54.1801 37.92C57.8641 36.822 60.9121 35.976 60.9301 36.036C60.9481 36.096 57.9301 37.05 54.2401 38.148C50.5501 39.246 47.5141 40.092 47.4961 40.026Z" fill="#E0E0E0"/>
<path d="M68.166 40.8C68.232 40.8 68.442 43.938 68.646 47.82C68.85 51.702 68.952 54.858 68.886 54.864C68.82 54.87 68.604 51.726 68.406 47.844C68.208 43.962 68.1 40.8 68.166 40.8Z" fill="#E0E0E0"/>
<path d="M240.876 74.322C240.885 70.6526 240.047 67.0306 238.427 63.738C236.807 60.4454 234.45 57.5709 231.537 55.3382C228.625 53.1056 225.237 51.575 221.637 50.8656C218.037 50.1561 214.322 50.287 210.78 51.2479C207.239 52.2089 203.967 53.974 201.219 56.406C198.471 58.838 196.322 61.8712 194.938 65.2696C193.554 68.668 192.972 72.34 193.239 75.9997C193.506 79.6594 194.614 83.2082 196.476 86.37L196.542 86.46C197.454 88.002 198.6 89.106 199.758 90.726L213.6 109.068C214.002 109.599 214.522 110.029 215.119 110.326C215.715 110.622 216.372 110.776 217.038 110.776C217.704 110.776 218.361 110.622 218.958 110.326C219.554 110.029 220.074 109.599 220.476 109.068L234.096 91.026C235.334 89.5614 236.49 88.0291 237.558 86.436L237.6 86.4C239.753 82.7395 240.884 78.5686 240.876 74.322ZM217.026 84.708C214.949 84.708 212.919 84.0922 211.193 82.9384C209.466 81.7847 208.12 80.1448 207.325 78.2262C206.531 76.3075 206.323 74.1963 206.728 72.1595C207.133 70.1227 208.133 68.2518 209.601 66.7834C211.07 65.3149 212.941 64.3149 214.978 63.9097C217.014 63.5046 219.126 63.7125 221.044 64.5073C222.963 65.302 224.603 66.6478 225.757 68.3745C226.91 70.1012 227.526 72.1313 227.526 74.208C227.526 76.9928 226.42 79.6635 224.451 81.6326C222.482 83.6017 219.811 84.708 217.026 84.708Z" fill="#95C6F2"/>
<path d="M259.116 115.254C259.129 113.27 258.683 111.31 257.813 109.527C256.942 107.744 255.671 106.186 254.099 104.976C252.527 103.766 250.696 102.935 248.75 102.55C246.803 102.165 244.794 102.235 242.879 102.756C240.965 103.276 239.196 104.232 237.712 105.549C236.229 106.866 235.07 108.509 234.326 110.348C233.582 112.188 233.274 114.174 233.426 116.153C233.578 118.131 234.185 120.047 235.2 121.752L235.236 121.8C235.728 122.628 236.346 123.228 236.97 124.098L244.44 133.992C244.656 134.279 244.935 134.512 245.257 134.672C245.578 134.833 245.932 134.916 246.291 134.916C246.65 134.916 247.004 134.833 247.325 134.672C247.647 134.512 247.926 134.279 248.142 133.992L255.486 124.26C256.156 123.472 256.781 122.647 257.358 121.788V121.752C258.515 119.782 259.122 117.538 259.116 115.254ZM246.252 120.852C245.133 120.851 244.04 120.518 243.11 119.896C242.181 119.273 241.456 118.389 241.029 117.355C240.602 116.321 240.49 115.184 240.709 114.087C240.928 112.989 241.468 111.982 242.259 111.191C243.051 110.4 244.059 109.862 245.156 109.644C246.254 109.426 247.391 109.539 248.425 109.967C249.458 110.396 250.341 111.121 250.963 112.051C251.584 112.982 251.916 114.075 251.916 115.194C251.916 115.938 251.769 116.674 251.485 117.361C251.2 118.047 250.783 118.671 250.257 119.197C249.731 119.722 249.106 120.139 248.419 120.423C247.732 120.707 246.996 120.853 246.252 120.852Z" fill="#6FACD8"/>
<path d="M282.822 278.262C282.822 278.352 223.35 278.418 150.006 278.418C76.662 278.418 17.178 278.352 17.178 278.262C17.178 278.172 76.638 278.106 150.006 278.106C223.374 278.106 282.822 278.178 282.822 278.262Z" fill="#263238"/>
<path d="M113.61 71.364L117.558 127.284C117.871 131.685 119.84 135.803 123.069 138.809C126.298 141.816 130.546 143.486 134.958 143.484C137.346 143.484 139.709 142.994 141.899 142.044C144.09 141.094 146.062 139.703 147.694 137.96C149.325 136.216 150.581 134.155 151.383 131.906C152.186 129.657 152.517 127.267 152.358 124.884C152.01 119.562 151.692 115.206 151.692 115.206C151.692 115.206 165.234 113.1 165.402 99.564C165.498 91.764 164.148 74.004 163.002 60.414C162.623 55.9825 160.595 51.8545 157.318 48.8469C154.042 45.8392 149.756 44.1709 145.308 44.172H137.106C133.761 44.3671 130.489 45.2314 127.484 46.7137C124.478 48.1959 121.801 50.2661 119.61 52.8015C117.419 55.337 115.76 58.2862 114.729 61.4747C113.698 64.6631 113.318 68.0259 113.61 71.364Z" fill="#FFBBA2"/>
<path d="M151.704 115.038C151.704 115.038 143.148 115.734 134.058 110.022C134.058 110.022 138.228 119.766 151.734 118.548L151.704 115.038Z" fill="#AA6550"/>
<path d="M158.772 76.8C158.777 77.3043 158.585 77.7905 158.236 78.1549C157.887 78.5192 157.41 78.7328 156.906 78.75C156.66 78.7696 156.413 78.7398 156.179 78.6625C155.945 78.5851 155.729 78.4618 155.543 78.2996C155.358 78.1375 155.207 77.9399 155.098 77.7184C154.99 77.4969 154.928 77.2561 154.914 77.01C154.909 76.5062 155.1 76.0201 155.448 75.655C155.795 75.2898 156.271 75.0743 156.774 75.054C157.021 75.0344 157.268 75.0643 157.503 75.142C157.738 75.2196 157.955 75.3434 158.141 75.5061C158.327 75.6688 158.479 75.8671 158.587 76.0893C158.696 76.3115 158.758 76.5531 158.772 76.8Z" fill="#263238"/>
<path d="M160.644 74.016C160.404 74.268 158.94 73.188 156.864 73.194C154.788 73.2 153.264 74.238 153.03 73.986C152.922 73.872 153.168 73.386 153.828 72.93C154.728 72.3075 155.799 71.9784 156.894 71.988C157.972 71.9836 159.023 72.3242 159.894 72.96C160.548 73.452 160.764 73.908 160.644 74.016Z" fill="#263238"/>
<path d="M138.474 76.8C138.479 77.3043 138.287 77.7905 137.938 78.1549C137.589 78.5192 137.112 78.7328 136.608 78.75C136.362 78.7696 136.115 78.7398 135.881 78.6625C135.647 78.5852 135.431 78.4618 135.246 78.2997C135.06 78.1375 134.909 77.9399 134.8 77.7184C134.692 77.4969 134.63 77.2561 134.616 77.01C134.611 76.5052 134.803 76.0182 135.152 75.6529C135.5 75.2876 135.978 75.0727 136.482 75.054C136.728 75.0353 136.975 75.0658 137.209 75.1438C137.443 75.2219 137.659 75.3458 137.845 75.5084C138.03 75.671 138.182 75.869 138.29 76.0908C138.398 76.3126 138.46 76.5537 138.474 76.8Z" fill="#263238"/>
<path d="M140.202 74.4C139.962 74.652 138.492 73.566 136.416 73.572C134.34 73.578 132.816 74.622 132.582 74.364C132.474 74.25 132.714 73.8 133.38 73.314C134.282 72.6946 135.352 72.364 136.446 72.366C137.523 72.3698 138.572 72.7096 139.446 73.338C140.1 73.836 140.316 74.292 140.202 74.4Z" fill="#263238"/>
<path d="M147.75 89.832C147.75 89.712 149.034 89.49 151.128 89.232C151.656 89.172 152.16 89.07 152.25 88.704C152.296 88.1561 152.172 87.6073 151.896 87.132C151.4 85.848 150.876 84.5 150.324 83.088C148.146 77.328 146.562 72.594 146.796 72.51C147.03 72.426 148.986 77.022 151.17 82.776C151.694 84.2 152.196 85.558 152.676 86.85C152.874 87.45 153.222 88.134 152.946 88.932C152.871 89.1195 152.753 89.2869 152.602 89.4212C152.451 89.5555 152.271 89.6529 152.076 89.706C151.783 89.7894 151.48 89.8318 151.176 89.832C149.064 89.94 147.756 89.952 147.75 89.832Z" fill="#263238"/>
<path d="M141.63 91.272C141.966 91.272 141.972 93.51 143.904 95.112C145.836 96.714 148.236 96.468 148.254 96.78C148.29 96.924 147.72 97.218 146.706 97.248C145.383 97.2666 144.096 96.8183 143.07 95.982C142.086 95.1781 141.453 94.0224 141.306 92.76C141.222 91.8 141.474 91.26 141.63 91.272Z" fill="#263238"/>
<path d="M140.736 66.252C140.532 66.852 138.456 66.552 136.014 66.852C133.572 67.152 131.598 67.812 131.274 67.302C131.13 67.062 131.472 66.528 132.27 65.982C133.331 65.3116 134.531 64.8914 135.778 64.7532C137.025 64.6149 138.288 64.7623 139.47 65.184C140.4 65.544 140.826 66 140.736 66.252Z" fill="#263238"/>
<path d="M159.882 67.998C159.516 68.472 158.082 67.998 156.36 67.956C154.638 67.914 153.18 68.274 152.844 67.782C152.694 67.542 152.922 67.068 153.564 66.618C154.42 66.0817 155.417 65.8124 156.426 65.8445C157.436 65.8765 158.414 66.2085 159.234 66.798C159.84 67.278 160.044 67.8 159.882 67.998Z" fill="#263238"/>
<path d="M118.2 81.522C117.966 81.42 108.9 78.774 109.2 88.026C109.5 97.278 118.722 95.076 118.734 94.806C118.746 94.536 118.2 81.522 118.2 81.522Z" fill="#FFBBA2"/>
<path d="M115.764 91.392C115.722 91.392 115.608 91.512 115.338 91.644C114.961 91.8184 114.532 91.8421 114.138 91.71C113.148 91.38 112.278 89.856 112.176 88.188C112.13 87.3956 112.259 86.6028 112.554 85.866C112.635 85.5712 112.786 85.3006 112.995 85.0778C113.204 84.8551 113.465 84.6869 113.754 84.588C113.938 84.5333 114.135 84.5448 114.312 84.6205C114.488 84.6961 114.633 84.8311 114.72 85.002C114.852 85.254 114.798 85.44 114.846 85.458C114.894 85.476 115.044 85.296 114.954 84.912C114.895 84.6855 114.759 84.4863 114.57 84.348C114.441 84.2552 114.296 84.1889 114.141 84.1529C113.987 84.1168 113.827 84.1118 113.67 84.138C113.293 84.226 112.945 84.4089 112.658 84.6693C112.371 84.9297 112.156 85.259 112.032 85.626C111.667 86.4412 111.505 87.3325 111.558 88.224C111.678 90.09 112.686 91.824 114.036 92.148C114.287 92.2125 114.55 92.2196 114.805 92.1687C115.059 92.1178 115.299 92.0102 115.506 91.854C115.752 91.62 115.8 91.41 115.764 91.392Z" fill="#AA6550"/>
<path d="M113.028 81.21C114.438 80.868 116.88 82.17 117.48 83.49C118.08 84.81 118.212 86.31 118.812 87.636C119.412 88.962 120.768 90.15 122.184 89.814C122.662 89.6644 123.093 89.3906 123.431 89.0207C123.769 88.6508 124.004 88.1979 124.11 87.708C124.314 86.7194 124.324 85.7005 124.14 84.708C123.594 80.388 122.688 76.104 122.514 71.748C122.34 67.392 122.958 62.874 125.244 59.148C127.53 55.422 131.724 52.71 136.044 53.064C138.918 53.292 141.558 54.792 144.414 55.194C146.116 55.4191 147.846 55.2534 149.474 54.7097C151.102 54.166 152.585 53.2584 153.81 52.056C154.122 51.75 155.562 50.796 155.562 50.796C155.562 50.574 155.352 48.642 154.59 47.934C148.92 42.696 138.708 41.232 131.22 43.134C123.732 45.036 116.712 50.334 113.49 57.318C110.268 64.302 111.228 74.118 113.004 81.198" fill="#263238"/>
<path d="M163.128 58.356C163.128 58.356 127.62 46.956 112.26 77.652C112.26 77.652 109.962 69.966 109.962 65.844C109.962 63.09 111.606 46.698 128.478 41.538C128.478 41.538 153.888 31.842 163.128 58.356Z" fill="#FF6A5E"/>
<path d="M132.6 59.124C133.231 60.1412 134.089 60.9979 135.108 61.6266C136.126 62.2554 137.277 62.6389 138.469 62.7472C139.661 62.8554 140.862 62.6852 141.977 62.2501C143.092 61.8151 144.09 61.1269 144.894 60.24C145.247 61.1228 145.868 61.8729 146.669 62.3853C147.469 62.8976 148.411 63.1464 149.36 63.0967C150.31 63.0471 151.22 62.7016 151.963 62.1086C152.706 61.5155 153.245 60.7048 153.504 59.79C154.467 60.863 155.644 61.7215 156.96 62.31C158.31 62.808 160.02 62.616 160.902 61.488C161.784 60.36 161.544 58.578 160.656 57.414C159.686 56.3134 158.445 55.486 157.056 55.014C152.847 53.1628 148.221 52.463 143.652 52.986C139.122 53.586 134.736 55.794 131.904 59.382" fill="#263238"/>
<g opacity="0.4">
<path opacity="0.4" d="M163.128 58.356C160.174 55.2431 156.124 53.4031 151.836 53.226C141.36 52.764 121.758 58.656 112.236 77.652C112.236 77.652 109.938 69.966 109.938 65.844C109.938 63.09 111.582 46.698 128.454 41.538C128.478 41.538 153.888 31.842 163.128 58.356Z" fill="black"/>
</g>
<path d="M113.742 74.058C119.004 66 126.264 59.34 134.43 54.258C142.596 49.176 156.09 44.118 165.39 41.658C168.186 40.914 171.096 40.266 173.946 40.758C176.796 41.25 179.58 43.158 180.282 45.948C181.17 49.458 174.942 54.87 172.02 56.994C169.098 59.118 163.128 62.244 163.128 62.244C163.128 62.244 163.212 55.74 152.796 54.402C138.636 52.548 113.742 74.058 113.742 74.058Z" fill="#FF6A5E"/>
<path d="M142.866 47.52C142.866 47.52 147.978 44.688 153.12 44.028C152.261 43.3606 151.324 42.8005 150.33 42.36C147.539 42.8213 144.841 43.729 142.338 45.048L142.866 47.52Z" fill="#E0E0E0"/>
<path d="M171.684 126.876L160.422 124.392L155.838 123.246L152.022 117.33C152.022 117.33 150.222 127.908 143.388 133.602C142.463 134.359 141.378 134.897 140.215 135.175C139.053 135.454 137.842 135.466 136.674 135.21C135.132 134.886 133.32 134.49 131.976 134.13C131.688 134.052 131.376 133.95 131.04 133.83C126.099 131.995 121.983 128.445 119.442 123.828C117.93 121.14 116.652 118.38 117.09 117.33L111.744 128.4L80.244 142.908L62.358 186.6L97.02 196.848L98.1 232.848L91.572 278.232L189.63 278.298L186.15 177.324" fill="#FF6A5E"/>
<path d="M146.334 165.966C146.134 165.982 145.934 165.982 145.734 165.966L143.988 165.924L137.754 165.702H137.634V165.6C137.532 162.894 137.406 159.69 137.268 156.264C137.106 151.326 136.962 146.862 136.848 143.58C136.812 141.984 136.782 140.682 136.758 139.734C136.758 139.308 136.758 138.96 136.758 138.69C136.742 138.569 136.742 138.446 136.758 138.324C136.786 138.442 136.8 138.563 136.8 138.684C136.8 138.96 136.842 139.284 136.866 139.728C136.914 140.676 136.98 141.978 137.058 143.568C137.19 146.85 137.37 151.314 137.568 156.246C137.688 159.678 137.796 162.882 137.892 165.588L137.76 165.462L143.994 165.792L145.734 165.906C145.936 165.904 146.137 165.924 146.334 165.966Z" fill="#263238"/>
<path d="M141 151.38C141.138 151.284 141.3 151.229 141.468 151.224C141.858 151.199 142.246 151.286 142.587 151.477C142.928 151.668 143.206 151.953 143.388 152.298C143.559 152.635 143.62 153.017 143.562 153.39C143.498 153.813 143.313 154.208 143.028 154.528C142.744 154.847 142.373 155.077 141.96 155.19C141.542 155.278 141.108 155.248 140.706 155.105C140.304 154.963 139.949 154.712 139.68 154.38C139.462 154.113 139.31 153.799 139.235 153.462C139.16 153.126 139.164 152.776 139.248 152.442C139.341 151.987 139.567 151.569 139.896 151.242C140.124 151.02 140.292 150.948 140.298 150.966C140.304 150.984 140.178 151.092 139.986 151.326C139.72 151.655 139.541 152.044 139.464 152.46C139.403 152.759 139.41 153.068 139.485 153.364C139.56 153.66 139.7 153.936 139.896 154.17C140.136 154.453 140.447 154.667 140.797 154.789C141.148 154.911 141.524 154.938 141.888 154.866C142.242 154.766 142.561 154.568 142.806 154.293C143.051 154.019 143.214 153.681 143.274 153.318C143.324 153.02 143.29 152.715 143.177 152.435C143.064 152.156 142.875 151.913 142.632 151.734C142.303 151.471 141.895 151.326 141.474 151.32C141.162 151.344 141 151.404 141 151.38Z" fill="#263238"/>
<path d="M139.938 138.702C140.077 138.58 140.248 138.501 140.43 138.474C140.928 138.369 141.448 138.445 141.894 138.69C142.211 138.851 142.481 139.091 142.68 139.386C142.911 139.731 143.026 140.141 143.01 140.556C142.991 141.029 142.83 141.486 142.547 141.866C142.265 142.246 141.874 142.532 141.426 142.686C140.968 142.803 140.486 142.783 140.04 142.627C139.594 142.471 139.203 142.187 138.918 141.81C138.665 141.485 138.513 141.093 138.48 140.682C138.461 140.328 138.519 139.974 138.648 139.644C138.834 139.174 139.164 138.775 139.59 138.504C139.738 138.393 139.915 138.326 140.1 138.312C140.1 138.312 139.926 138.402 139.662 138.606C139.291 138.892 139.011 139.28 138.858 139.722C138.738 140.039 138.701 140.381 138.751 140.717C138.802 141.052 138.938 141.369 139.146 141.636C139.399 141.959 139.741 142.202 140.13 142.336C140.519 142.469 140.938 142.486 141.336 142.386C141.722 142.249 142.06 142.001 142.306 141.674C142.553 141.346 142.697 140.953 142.722 140.544C142.738 140.208 142.659 139.874 142.495 139.58C142.33 139.286 142.087 139.044 141.792 138.882C141.389 138.644 140.919 138.543 140.454 138.594C140.124 138.636 139.95 138.726 139.938 138.702Z" fill="#263238"/>
<path d="M136.746 187.128C136.746 187.128 136.794 187.098 136.896 187.062L137.346 186.888C137.748 186.75 138.318 186.498 139.044 186.162C141.071 185.14 142.932 183.817 144.564 182.238C146.962 179.876 149.082 177.247 150.882 174.402C153.133 170.944 155.188 167.362 157.038 163.674C160.365 156.952 163.284 150.035 165.78 142.962C166.758 140.25 167.52 138.048 168.054 136.53L168.654 134.778C168.72 134.598 168.78 134.448 168.822 134.328C168.839 134.276 168.861 134.226 168.888 134.178C168.884 134.233 168.871 134.288 168.852 134.34C168.816 134.46 168.768 134.61 168.714 134.802C168.576 135.228 168.39 135.816 168.156 136.602C167.658 138.132 166.926 140.346 165.966 143.064C163.535 150.156 160.645 157.083 157.314 163.8C155.459 167.499 153.392 171.087 151.122 174.546C149.301 177.406 147.15 180.042 144.714 182.4C143.056 183.976 141.161 185.282 139.098 186.27C138.533 186.529 137.954 186.755 137.364 186.948L136.902 187.092C136.852 187.112 136.799 187.124 136.746 187.128Z" fill="#263238"/>
<path d="M157.404 175.146C157.662 175.146 163.632 174.738 163.632 174.738C163.632 174.738 161.166 179.094 158.598 180.738H153.372L157.404 175.146Z" fill="#FAFAFA"/>
<path d="M135.702 200.322C135.804 200.224 135.917 200.138 136.038 200.064L137.046 199.368C137.916 198.768 139.17 197.868 140.676 196.71C143.676 194.412 147.672 190.98 151.944 187.056C154.08 185.094 156.144 183.246 157.908 181.47C159.491 179.913 160.961 178.245 162.306 176.478C163.209 175.286 164.012 174.022 164.706 172.698C164.97 172.236 165.132 171.858 165.258 171.606C165.315 171.473 165.385 171.347 165.468 171.228C165.43 171.366 165.379 171.501 165.318 171.63C165.21 171.888 165.06 172.278 164.814 172.752C164.155 174.106 163.374 175.398 162.48 176.61C161.153 178.407 159.69 180.099 158.106 181.674C156.336 183.474 154.284 185.328 152.148 187.284C147.876 191.208 143.874 194.628 140.808 196.884C139.278 198.018 138 198.882 137.112 199.464C136.662 199.752 136.308 199.962 136.068 200.112C135.954 200.196 135.832 200.266 135.702 200.322Z" fill="#263238"/>
<path d="M118.878 267C118.878 267 118.878 266.946 118.95 266.856C119.022 266.766 119.1 266.622 119.196 266.46C119.418 266.118 119.754 265.614 120.204 264.978C121.104 263.718 122.496 261.942 124.332 259.854C128.028 255.708 133.206 250.05 138.906 243.786L153.6 227.772L158.07 222.972L159.27 221.67L159.594 221.34L159.714 221.232C159.714 221.232 159.684 221.28 159.618 221.358L159.318 221.712L158.118 223.056L153.72 227.946L139.14 243.978L124.5 259.986C122.646 262.05 121.23 263.796 120.3 265.032C119.838 265.632 119.484 266.142 119.25 266.478L118.98 266.856C118.95 266.907 118.916 266.955 118.878 267Z" fill="#263238"/>
<path d="M170.904 126.6C171.42 127.374 183.012 128.664 185.85 131.496C188.688 134.328 217.05 155.976 217.05 155.976L196.836 183.18L183.792 180.306L170.904 126.6Z" fill="#FF6A5E"/>
<path opacity="0.4" d="M213.612 153.336L190.95 181.884L196.836 183.18L217.026 155.946L213.612 153.336Z" fill="black"/>
<path d="M177.078 154.92C176.977 154.61 176.898 154.293 176.844 153.972C176.778 153.666 176.7 153.288 176.646 152.844C176.592 152.4 176.502 151.896 176.472 151.332C176.442 150.768 176.382 150.132 176.382 149.49C176.382 148.848 176.382 148.122 176.436 147.378C176.553 145.76 176.803 144.154 177.186 142.578C177.594 141.009 178.134 139.478 178.8 138C179.118 137.328 179.4 136.68 179.742 136.104C180.084 135.528 180.378 134.994 180.684 134.52C180.99 134.046 181.284 133.638 181.548 133.272C181.766 132.958 182.001 132.656 182.25 132.366C182.447 132.105 182.665 131.863 182.904 131.64C182.74 131.921 182.554 132.188 182.346 132.438C182.16 132.69 181.932 132.996 181.692 133.374C181.452 133.752 181.146 134.154 180.87 134.64C180.594 135.126 180.27 135.642 179.97 136.23C179.67 136.818 179.37 137.43 179.064 138.114C178.432 139.586 177.915 141.105 177.516 142.656C177.142 144.212 176.888 145.795 176.754 147.39C176.712 148.128 176.658 148.83 176.676 149.484C176.694 150.138 176.676 150.75 176.724 151.284C176.772 151.818 176.808 152.346 176.85 152.79C176.892 153.234 176.946 153.612 176.994 153.918C177.054 154.249 177.082 154.584 177.078 154.92Z" fill="#263238"/>
<path d="M186.15 177.288C185.221 175.487 184.386 173.638 183.648 171.75C182.812 169.905 182.071 168.019 181.428 166.098C182.357 167.898 183.194 169.745 183.936 171.63C184.773 173.476 185.512 175.364 186.15 177.288Z" fill="#263238"/>
<path d="M97.02 157.524C96.972 157.524 96.486 156.654 95.568 155.304C94.3702 153.546 92.9994 151.911 91.476 150.426C89.945 148.952 88.273 147.632 86.484 146.484C85.104 145.608 84.198 145.152 84.222 145.104C84.452 145.167 84.6735 145.258 84.882 145.374C85.4692 145.653 86.0419 145.961 86.598 146.298C88.4437 147.398 90.1552 148.709 91.698 150.204C93.2357 151.704 94.5966 153.375 95.754 155.184C96.192 155.88 96.522 156.456 96.726 156.87C96.8505 157.075 96.9492 157.295 97.02 157.524Z" fill="#263238"/>
<path opacity="0.4" d="M62.358 186.582L63.756 183.18L102.096 193.62L100.578 197.886L62.358 186.582Z" fill="black"/>
<path d="M164.712 173.136H179.31V179.136L160.632 179.016C160.632 179.016 163.518 175.542 164.712 173.136Z" fill="#FAFAFA"/>
<g opacity="0.2">
<path opacity="0.2" d="M112.644 129.72C113.172 134.4 113.748 139.23 116.064 143.334C118.38 147.438 122.91 150.672 127.572 149.982C130.68 149.52 133.314 147.444 135.432 145.116C137.55 142.788 139.326 140.154 141.636 138.024C143.033 139.528 144.595 140.871 146.292 142.026C148.007 143.188 150.065 143.731 152.13 143.568C154.164 143.322 155.286 142.512 155.928 140.568C153.756 141.24 152.562 141.138 150.396 140.724C148.004 140.266 145.759 139.236 143.85 137.724C142.578 136.722 142.116 135.216 140.502 135.324C139.008 135.408 137.838 136.59 136.854 137.724C135.265 139.543 133.523 141.221 131.646 142.74C129.846 144.162 128.106 145.14 125.814 145.074C122.04 144.99 118.95 142.026 116.868 138.876C114.946 135.972 113.526 132.765 112.668 129.39" fill="black"/>
</g>
<path d="M156.828 123.882C156.862 123.991 156.884 124.104 156.894 124.218C156.894 124.44 156.966 124.764 157.008 125.184C157.098 126.024 157.188 127.242 157.224 128.784C157.305 132.728 156.929 136.669 156.102 140.526V140.622V140.718H156.012C153.879 141.218 151.653 141.158 149.55 140.544C147.83 140.084 146.205 139.325 144.75 138.3C143.765 137.631 142.882 136.822 142.128 135.9C141.925 135.651 141.737 135.391 141.564 135.12C141.497 135.028 141.439 134.929 141.39 134.826C142.369 136.106 143.543 137.224 144.87 138.138C146.318 139.116 147.92 139.842 149.61 140.286C151.668 140.867 153.839 140.919 155.922 140.436L155.808 140.55V140.454C156.625 136.616 157.027 132.702 157.008 128.778C157.008 127.272 156.942 126.054 156.894 125.208C156.894 124.818 156.852 124.5 156.834 124.242C156.815 124.123 156.813 124.002 156.828 123.882Z" fill="#263238"/>
<path d="M138.6 135.72C138.552 135.848 138.488 135.969 138.408 136.08C138.207 136.413 137.987 136.733 137.748 137.04C136.852 138.158 135.865 139.2 134.796 140.154C134.13 140.754 133.38 141.42 132.57 142.104C132.162 142.446 131.754 142.806 131.298 143.166C130.828 143.52 130.333 143.839 129.816 144.12C128.705 144.732 127.479 145.106 126.216 145.218C124.838 145.335 123.456 145.029 122.256 144.342C121.087 143.646 120.04 142.764 119.154 141.732C118.314 140.797 117.533 139.811 116.814 138.78C115.602 137.031 114.579 135.158 113.76 133.194C113.211 131.873 112.762 130.514 112.416 129.126C112.29 128.634 112.212 128.25 112.164 127.986C112.131 127.854 112.111 127.72 112.104 127.584C112.159 127.709 112.199 127.84 112.224 127.974C112.296 128.232 112.392 128.61 112.53 129.096C112.924 130.463 113.403 131.803 113.964 133.11C114.805 135.044 115.84 136.888 117.054 138.612C117.77 139.629 118.547 140.601 119.382 141.522C120.239 142.527 121.252 143.388 122.382 144.072C123.53 144.728 124.85 145.02 126.168 144.912C127.395 144.806 128.587 144.451 129.672 143.868C130.181 143.598 130.669 143.289 131.13 142.944C131.568 142.608 131.988 142.242 132.396 141.906C133.212 141.228 133.968 140.592 134.64 139.992C135.712 139.067 136.715 138.064 137.64 136.992C137.958 136.608 138.192 136.29 138.348 136.074C138.422 135.949 138.506 135.83 138.6 135.72Z" fill="#263238"/>
<path d="M125.676 204.66L130.302 197.916C130.302 197.916 133.482 186.864 133.05 185.316C132.618 183.768 131.214 178.008 131.544 177.936C131.874 177.864 135.336 176.58 137.214 181.2C138.384 184.08 138.768 187.872 138.894 190.32C138.908 190.622 138.987 190.918 139.126 191.187C139.265 191.456 139.461 191.692 139.7 191.878C139.939 192.064 140.215 192.196 140.51 192.264C140.805 192.333 141.111 192.337 141.408 192.276C144.606 191.616 149.928 190.614 151.194 190.92C153.03 191.358 154.674 193.698 154.83 194.484C154.986 195.27 153.726 197.04 153.726 197.04C153.726 197.04 155.286 197.838 155.766 199.044C155.832 199.206 155.886 199.368 155.934 199.524C156.08 200.007 156.098 200.521 155.986 201.013C155.873 201.506 155.634 201.96 155.292 202.332L154.8 202.872C154.8 202.872 156.75 203.406 156.99 204.522C157.12 205.337 157.098 206.169 156.924 206.976L155.094 208.866C155.604 209.342 155.938 209.976 156.042 210.666C156.138 211.698 153.396 214.266 153.396 214.266L141.63 218.466L136.962 219.666L125.676 204.66Z" fill="#FFBBA2"/>
<path d="M153.762 197.052C152.418 197.414 151.056 197.708 149.682 197.934C148.332 198.264 146.966 198.524 145.59 198.714C145.958 198.534 146.347 198.399 146.748 198.312C147.474 198.108 148.488 197.856 149.622 197.628C150.756 197.4 151.782 197.232 152.538 197.136C152.94 197.053 153.352 197.025 153.762 197.052Z" fill="#AA6550"/>
<path d="M154.836 202.872C153.836 203.341 152.793 203.713 151.722 203.982C150.682 204.355 149.61 204.628 148.518 204.798C149.518 204.329 150.561 203.957 151.632 203.688C152.672 203.315 153.745 203.042 154.836 202.872Z" fill="#AA6550"/>
<path d="M155.538 208.614C154.484 209.245 153.378 209.785 152.232 210.228C151.128 210.769 149.98 211.214 148.8 211.56C149.854 210.929 150.96 210.389 152.106 209.946C153.21 209.405 154.358 208.96 155.538 208.614Z" fill="#AA6550"/>
<path d="M98.568 246.336L141.84 217.308L130.92 197.508L91.428 217.818L95.91 196.482L69.108 188.55L62.4 225.09C61.368 241.338 74.4 254.454 90.108 250.188C93.1191 249.374 95.9768 248.072 98.568 246.336Z" fill="#FFBBA2"/>
<path d="M85.71 229.302C85.632 229.129 85.5814 228.945 85.56 228.756C85.4709 228.251 85.4208 227.739 85.41 227.226C85.3874 225.519 85.7699 223.831 86.526 222.3C87.2926 220.773 88.4139 219.452 89.796 218.448C90.2078 218.142 90.6455 217.873 91.104 217.644C91.2685 217.548 91.4465 217.477 91.632 217.434C91.632 217.488 90.93 217.83 89.928 218.634C88.616 219.659 87.5494 220.963 86.8061 222.453C86.0629 223.943 85.6617 225.58 85.632 227.244C85.602 228.504 85.8 229.296 85.71 229.302Z" fill="#AA6550"/>
<path d="M196.836 183.18C197.106 182.808 227.652 201.42 227.652 201.42L237.444 246.03L251.538 251.202C251.538 251.202 255.936 201.558 252.588 193.83C249.24 186.102 215.298 158.298 215.298 158.298L196.836 183.18Z" fill="#FFBBA2"/>
<path d="M234.324 198C233.644 199.023 232.739 199.877 231.678 200.496C230.672 201.204 229.52 201.676 228.306 201.876C229.402 201.385 230.472 200.836 231.51 200.232C232.489 199.541 233.428 198.796 234.324 198Z" fill="#AA6550"/>
<path d="M160.098 183.276L162.492 226.092L211.308 222.792L209.832 190.92L202.722 181.35L160.098 183.276Z" fill="#263238"/>
<path d="M149.004 227.046C149.148 227.868 153.294 266.646 153.294 266.646L225.948 261.6L238.242 259.95L232.572 223.842L223.89 221.76L149.004 227.046Z" fill="#FF948B"/>
<path d="M203.988 223.284L162.492 226.092L160.098 183.276L202.722 181.35L203.988 223.284Z" fill="#455A64"/>
<path d="M175.572 182.58L176.448 195.774L178.668 194.502L179.898 195.774L181.428 194.502L183.792 195.774V182.208L175.572 182.58Z" fill="#263238"/>
<path d="M192.918 224.184L190.08 192.048L217.818 199.692L220.494 221.874L192.918 224.184Z" fill="#FF6A5E"/>
<path d="M217.8 199.698C217.751 199.78 217.692 199.857 217.626 199.926L217.092 200.556L215.052 202.884L207.966 210.834L207.858 210.954L207.744 210.84L204 206.88L194.118 196.44L191.148 193.248L190.35 192.372C190.251 192.275 190.165 192.166 190.092 192.048C190.202 192.131 190.304 192.223 190.398 192.324L191.238 193.164L194.274 196.284L204.222 206.664L207.99 210.63H207.768L214.968 202.752L217.074 200.484L217.644 199.884C217.69 199.817 217.742 199.755 217.8 199.698Z" fill="#263238"/>
<path d="M202.266 205.65C202.344 205.692 200.364 209.484 197.85 214.122C195.336 218.76 193.236 222.486 193.158 222.444C193.08 222.402 195.06 218.61 197.574 213.972C200.088 209.334 202.2 205.608 202.266 205.65Z" fill="#263238"/>
<path d="M219.846 221.874C219.774 221.916 217.854 218.844 215.556 215.016C213.258 211.188 211.452 208.038 211.53 207.99C211.608 207.942 213.522 211.02 215.82 214.854C218.118 218.688 219.924 221.832 219.846 221.874Z" fill="#263238"/>
<path d="M207.816 222.93L206.004 202.464L223.668 207.336L225.372 221.46L207.816 222.93Z" fill="#FF6A5E"/>
<path opacity="0.4" d="M207.816 222.93L206.004 202.464L223.668 207.336L225.372 221.46L207.816 222.93Z" fill="white"/>
<path d="M223.668 207.336C223.542 207.537 223.395 207.724 223.23 207.894C222.9 208.284 222.468 208.782 221.946 209.388L217.446 214.464L217.338 214.59L217.224 214.47L214.824 211.95C212.358 209.364 210.138 207.006 208.542 205.29L206.67 203.244C206.428 203.004 206.207 202.743 206.01 202.464C206.277 202.675 206.525 202.908 206.754 203.16L208.704 205.134C210.342 206.814 212.586 209.148 215.052 211.734L217.452 214.26H217.2L221.778 209.256L223.134 207.822C223.296 207.644 223.475 207.481 223.668 207.336Z" fill="#263238"/>
<path d="M213.768 211.128C213.84 211.17 212.604 213.594 211.002 216.528C210.083 218.338 209.069 220.098 207.966 221.802C208.791 219.955 209.713 218.153 210.726 216.402C211.646 214.591 212.661 212.831 213.768 211.128Z" fill="#263238"/>
<path d="M224.964 221.46C223.95 220.071 223.02 218.623 222.18 217.122C221.248 215.674 220.408 214.169 219.666 212.616C221.603 215.458 223.372 218.411 224.964 221.46Z" fill="#263238"/>
<path d="M219.072 206.472V208.116L221.652 208.416L221.79 207.162L219.072 206.472Z" fill="white"/>
<path d="M209.964 198.126V200.526L214.836 201.33L215.106 199.494L209.964 198.126Z" fill="white"/>
<path d="M190.95 236.148L190.71 224.184L181.008 224.838L182.046 236.994L190.95 236.148Z" fill="#FF786D"/>
<path d="M222.589 242.434L206.3 243.979L207.667 258.386L223.956 256.841L222.589 242.434Z" fill="#FAFAFA"/>
<path d="M223.932 256.86C223.912 256.769 223.898 256.677 223.89 256.584C223.89 256.386 223.836 256.128 223.8 255.804C223.728 255.108 223.62 254.118 223.488 252.876C223.23 250.344 222.888 246.768 222.432 242.466L222.576 242.586L206.298 244.152C206.262 244.188 206.562 243.834 206.436 243.984V244.092V244.218V244.458L206.484 244.95L206.574 245.922C206.64 246.564 206.7 247.2 206.76 247.836C206.874 249.102 206.994 250.338 207.108 251.55C207.33 253.95 207.546 256.26 207.738 258.378L207.588 258.258L219.342 257.214L222.678 256.932L223.572 256.866C223.678 256.858 223.784 256.858 223.89 256.866C223.797 256.888 223.703 256.902 223.608 256.908L222.744 257.01L219.444 257.358L207.618 258.558H207.48V258.42C207.27 256.296 207.048 254.004 206.814 251.592C206.702 250.392 206.584 249.154 206.46 247.878C206.4 247.242 206.34 246.606 206.28 245.958C206.25 245.64 206.22 245.316 206.184 244.992L206.142 244.5V244.26V244.134V244.026C206.016 244.176 206.31 243.816 206.286 243.852L222.57 242.334H222.702V242.466C223.086 246.804 223.404 250.416 223.632 252.972C223.734 254.202 223.812 255.18 223.872 255.876C223.872 256.194 223.914 256.446 223.926 256.638C223.933 256.712 223.935 256.786 223.932 256.86Z" fill="#263238"/>
<path d="M221.292 245.904C221.292 245.994 218.454 246.36 214.932 246.732C212.812 247.011 210.679 247.183 208.542 247.248C208.542 247.164 211.38 246.792 214.902 246.42C218.424 246.048 221.286 245.82 221.292 245.904Z" fill="#263238"/>
<path d="M221.196 248.352C220.63 248.556 220.045 248.702 219.45 248.79C218.358 249.006 216.84 249.258 215.154 249.456C213.468 249.654 211.926 249.762 210.816 249.798C210.217 249.852 209.615 249.852 209.016 249.798C209.609 249.681 210.211 249.613 210.816 249.594C211.92 249.492 213.444 249.354 215.124 249.156C216.804 248.958 218.322 248.742 219.42 248.556C220.006 248.444 220.6 248.376 221.196 248.352Z" fill="#263238"/>
<path d="M221.886 253.704C221.318 253.906 220.731 254.053 220.134 254.142C219.042 254.358 217.524 254.61 215.838 254.808C214.152 255.006 212.616 255.114 211.5 255.15C210.901 255.208 210.299 255.208 209.7 255.15C210.293 255.033 210.895 254.965 211.5 254.946C212.604 254.85 214.134 254.706 215.814 254.508C217.494 254.31 219.012 254.094 220.11 253.908C220.696 253.796 221.29 253.727 221.886 253.704Z" fill="#263238"/>
<path d="M221.064 250.962C219.106 251.405 217.125 251.741 215.13 251.97C213.144 252.307 211.141 252.54 209.13 252.666C211.09 252.23 213.07 251.894 215.064 251.658C217.051 251.324 219.053 251.092 221.064 250.962Z" fill="#263238"/>
<path d="M235.446 273.276C235.446 273.276 248.856 264.402 249.888 259.866C250.92 255.33 251.538 251.202 251.538 251.202L237.21 245.268L238.632 250.428C238.632 250.428 233.496 253.482 232.968 257.184C232.62 259.65 225.978 263.874 225.978 263.874C225.425 263.206 224.722 262.679 223.927 262.336C223.131 261.993 222.265 261.843 221.4 261.9L215.82 262.296L219.594 270.798L235.446 273.276Z" fill="#FFBBA2"/>
<path d="M240.684 261.114C240.489 261.233 240.276 261.32 240.054 261.372C239.634 261.51 239.01 261.648 238.254 261.888C237.401 262.192 236.611 262.651 235.926 263.244C235.063 263.98 234.096 264.587 233.058 265.044C231.137 265.862 229.004 266.041 226.974 265.554C226.617 265.485 226.275 265.357 225.96 265.176C225.831 265.103 225.727 264.993 225.66 264.861C225.594 264.728 225.569 264.579 225.588 264.432C225.598 264.341 225.631 264.253 225.683 264.178C225.736 264.103 225.806 264.041 225.888 264C226.008 263.958 226.074 264 226.074 264C226.074 264 226.008 264 225.918 264.066C225.855 264.112 225.804 264.171 225.767 264.24C225.731 264.308 225.711 264.384 225.708 264.462C225.697 264.586 225.724 264.71 225.787 264.817C225.849 264.925 225.943 265.01 226.056 265.062C226.363 265.213 226.69 265.316 227.028 265.368C229.013 265.772 231.075 265.563 232.938 264.768C233.953 264.316 234.898 263.722 235.746 263.004C236.465 262.407 237.292 261.955 238.182 261.672C238.95 261.456 239.574 261.354 239.982 261.246C240.212 261.184 240.447 261.139 240.684 261.114Z" fill="#AA6550"/>
<path d="M231.396 267.996C231.396 268.044 230.706 267.648 229.566 267.174C228.08 266.566 226.514 266.176 224.916 266.016C224.448 265.968 223.986 265.956 223.542 265.944H223.458L223.41 265.872C222.715 264.785 221.878 263.796 220.92 262.932C220.194 262.278 219.72 261.942 219.72 261.906C219.72 261.87 219.864 261.954 220.092 262.098C220.416 262.307 220.728 262.534 221.028 262.776C222.051 263.61 222.936 264.6 223.65 265.71L223.524 265.638C223.98 265.638 224.448 265.638 224.928 265.71C226.557 265.867 228.149 266.295 229.638 266.976C230.086 267.18 230.521 267.413 230.94 267.672C231.108 267.756 231.262 267.865 231.396 267.996Z" fill="#AA6550"/>
<path d="M235.02 265.56C235.02 265.644 234.114 265.986 233.058 266.586C232.002 267.186 231.228 267.816 231.168 267.744C232.158 266.589 233.521 265.817 235.02 265.56Z" fill="#AA6550"/>
<path d="M242.286 249.6C242.286 249.696 241.35 249.6 240.282 249.87C239.214 250.14 238.482 250.692 238.398 250.614C238.894 250.11 239.518 249.749 240.202 249.571C240.887 249.392 241.607 249.402 242.286 249.6Z" fill="#AA6550"/>
<path d="M46.6621 244.482C48.4261 246.582 51.4081 245.568 52.6981 244.074C53.9881 242.58 54.4081 240.552 54.7861 238.614C55.6381 234.186 56.4901 229.548 55.1701 225.234C54.8295 223.921 54.1341 222.728 53.1601 221.784C52.6671 221.321 52.0612 220.996 51.403 220.841C50.7449 220.687 50.0576 220.708 49.4101 220.902C47.9101 221.442 47.0881 223.032 46.5301 224.502C44.8758 228.903 44.224 233.617 44.6221 238.302C44.8081 240.486 45.2701 242.748 46.6621 244.44" fill="#FF6A5E"/>
<g opacity="0.2">
<path opacity="0.2" d="M46.6621 244.482C48.4261 246.582 51.4081 245.568 52.6981 244.074C53.9881 242.58 54.4081 240.552 54.7861 238.614C55.6381 234.186 56.4901 229.548 55.1701 225.234C54.8295 223.921 54.1341 222.728 53.1601 221.784C52.6671 221.321 52.0612 220.996 51.403 220.841C50.7449 220.687 50.0576 220.708 49.4101 220.902C47.9101 221.442 47.0881 223.032 46.5301 224.502C44.8758 228.903 44.224 233.617 44.6221 238.302C44.8081 240.486 45.2701 242.748 46.6621 244.44" fill="black"/>
</g>
<path d="M53.544 255.3C55.992 253.746 58.998 253.302 61.884 253.5C63.438 253.62 65.07 253.932 66.216 254.988C67.362 256.044 67.734 258.048 66.63 259.14C65.9057 259.731 64.997 260.05 64.062 260.04C61.83 260.214 59.322 260.04 57.666 261.546C56.718 262.398 56.154 263.73 54.972 264.216C54.3773 264.41 53.7356 264.405 53.1437 264.203C52.5517 264.001 52.0416 263.611 51.69 263.094C51.0091 262.026 50.7662 260.737 51.012 259.494C51.0846 258.648 51.3506 257.829 51.7896 257.102C52.2286 256.375 52.8289 255.758 53.544 255.3Z" fill="#FF6A5E"/>
<path d="M42.642 248.082C44.166 245.91 44.226 242.934 43.2421 240.468C42.258 238.002 40.35 236.01 38.226 234.426C35.7118 232.564 32.8585 231.211 29.826 230.442C28.6486 230.087 27.4087 229.989 26.19 230.154C25.5918 230.253 25.0261 230.495 24.5405 230.858C24.055 231.221 23.6639 231.696 23.4 232.242C22.71 233.91 23.682 235.776 24.69 237.276C26.4635 239.921 28.4394 242.425 30.6 244.764C32.346 246.642 34.32 248.472 36.786 249.174C39.2521 249.876 41.7181 249.54 42.8401 247.776" fill="#FF6A5E"/>
<path d="M49.5721 278.268C49.6238 277.927 49.6399 277.581 49.6201 277.236C49.6201 276.492 49.6201 275.556 49.6201 274.44C49.6357 273.058 49.7238 271.678 49.8841 270.306C50.1001 268.634 50.4513 266.983 50.9341 265.368C51.4013 263.756 52.0963 262.218 52.9981 260.802C53.7319 259.648 54.7137 258.673 55.8721 257.946C56.657 257.464 57.5137 257.109 58.4101 256.896C58.7503 256.847 59.0855 256.769 59.4121 256.662C59.0664 256.646 58.7201 256.67 58.3801 256.734C57.4429 256.893 56.5411 257.216 55.7161 257.688C54.4931 258.408 53.4522 259.399 52.6741 260.586C51.7347 262.027 51.011 263.598 50.5261 265.248C50.0385 266.887 49.6932 268.565 49.4941 270.264C49.3539 271.649 49.2958 273.042 49.3201 274.434C49.3201 275.634 49.3921 276.582 49.4341 277.242C49.4406 277.588 49.4869 277.932 49.5721 278.268Z" fill="#263238"/>
<path d="M49.5721 276.114C49.588 275.956 49.588 275.798 49.5721 275.64C49.5721 275.286 49.5001 274.836 49.4521 274.29C49.3441 273.12 49.1941 271.422 49.0681 269.322C48.7981 265.122 48.6421 259.314 48.7681 252.9C48.8941 246.486 49.3201 240.684 49.8061 236.508C49.9141 235.458 50.0281 234.516 50.1481 233.688C50.2681 232.86 50.3521 232.146 50.4481 231.57C50.5441 230.994 50.5921 230.58 50.6461 230.226C50.6776 230.07 50.6917 229.911 50.6881 229.752C50.6248 229.899 50.5824 230.055 50.5621 230.214C50.4901 230.562 50.4001 231 50.2861 231.54C50.1721 232.08 50.0461 232.83 49.9141 233.658C49.7821 234.486 49.6381 235.422 49.5061 236.472C48.8263 241.921 48.4397 247.403 48.3481 252.894C48.2221 259.32 48.4201 265.146 48.7681 269.346C48.9301 271.446 49.1281 273.144 49.2901 274.308C49.3681 274.854 49.4401 275.298 49.4881 275.652C49.5001 275.808 49.5283 275.963 49.5721 276.114Z" fill="#263238"/>
<path d="M48.6 264.93C48.5944 264.457 48.5503 263.986 48.468 263.52C48.33 262.62 48.09 261.324 47.694 259.74C47.2158 257.891 46.6349 256.07 45.954 254.286C45.134 252.094 44.1595 249.962 43.038 247.908C41.068 244.117 38.425 240.716 35.238 237.87C34.6827 237.387 34.0997 236.936 33.492 236.52C33.228 236.334 32.994 236.148 32.754 236.004L32.094 235.626C31.6921 235.378 31.2731 235.16 30.84 234.972C30.78 235.068 32.64 235.944 35.04 238.098C38.1288 240.977 40.7037 244.361 42.654 248.106C43.7718 250.138 44.7559 252.24 45.6 254.4C46.392 256.392 46.968 258.234 47.4 259.8C47.832 261.366 48.114 262.644 48.3 263.532C48.3616 264.005 48.462 264.473 48.6 264.93Z" fill="#263238"/>
</svg>
